<mxfile host="app.diagrams.net" agent="Mozilla/5.0 (X11; Ubuntu; Linux x86_64; rv:137.0) Gecko/20100101 Firefox/137.0" version="26.1.1" pages="3">
  <diagram name="Page-1" id="Xh1ErB6_u_adLNAGGUj5">
    <mxGraphModel dx="1586" dy="1153" grid="0" gridSize="10" guides="1" tooltips="1" connect="1" arrows="1" fold="1" page="0" pageScale="1" pageWidth="850" pageHeight="1100" math="0" shadow="0">
      <root>
        <mxCell id="0" />
        <mxCell id="1" parent="0" />
        <mxCell id="rvcM71lpAnGpcnKJATGv-66" value="&lt;span style=&quot;color: rgba(0, 0, 0, 0); font-family: monospace; font-size: 0px; text-align: start;&quot;&gt;%3CmxGraphModel%3E%3Croot%3E%3CmxCell%20id%3D%220%22%2F%3E%3CmxCell%20id%3D%221%22%20parent%3D%220%22%2F%3E%3CmxCell%20id%3D%222%22%20value%3D%22%26lt%3Bb%26gt%3BWorker%26lt%3B%2Fb%26gt%3B%22%20style%3D%22verticalLabelPosition%3Dbottom%3Bhtml%3D1%3BverticalAlign%3Dtop%3BstrokeWidth%3D1%3Balign%3Dcenter%3BoutlineConnect%3D0%3Bdashed%3D0%3BoutlineConnect%3D0%3Bshape%3Dmxgraph.aws3d.worker%3BfillColor%3D%23ECECEC%3BstrokeColor%3D%235E5E5E%3Baspect%3Dfixed%3B%22%20vertex%3D%221%22%20parent%3D%221%22%3E%3CmxGeometry%20x%3D%22459%22%20y%3D%22-11%22%20width%3D%2274%22%20height%3D%2250%22%20as%3D%22geometry%22%2F%3E%3C%2FmxCell%3E%3C%2Froot%3E%3C%2FmxGraphModel%3E&lt;/span&gt;" style="verticalLabelPosition=bottom;html=1;verticalAlign=top;strokeWidth=1;align=center;outlineConnect=0;dashed=0;outlineConnect=0;shape=mxgraph.aws3d.dashedEdge2;strokeColor=#2D6195;aspect=fixed;rotation=-15;" vertex="1" parent="1">
          <mxGeometry x="116" y="332" width="71.23" height="40.57" as="geometry" />
        </mxCell>
        <mxCell id="rvcM71lpAnGpcnKJATGv-67" value="&lt;span style=&quot;color: rgba(0, 0, 0, 0); font-family: monospace; font-size: 0px; text-align: start;&quot;&gt;%3CmxGraphModel%3E%3Croot%3E%3CmxCell%20id%3D%220%22%2F%3E%3CmxCell%20id%3D%221%22%20parent%3D%220%22%2F%3E%3CmxCell%20id%3D%222%22%20value%3D%22%26lt%3Bb%26gt%3BWorker%26lt%3B%2Fb%26gt%3B%22%20style%3D%22verticalLabelPosition%3Dbottom%3Bhtml%3D1%3BverticalAlign%3Dtop%3BstrokeWidth%3D1%3Balign%3Dcenter%3BoutlineConnect%3D0%3Bdashed%3D0%3BoutlineConnect%3D0%3Bshape%3Dmxgraph.aws3d.worker%3BfillColor%3D%23ECECEC%3BstrokeColor%3D%235E5E5E%3Baspect%3Dfixed%3B%22%20vertex%3D%221%22%20parent%3D%221%22%3E%3CmxGeometry%20x%3D%22459%22%20y%3D%22-11%22%20width%3D%2274%22%20height%3D%2250%22%20as%3D%22geometry%22%2F%3E%3C%2FmxCell%3E%3C%2Froot%3E%3C%2FmxGraphModel%3E&lt;/span&gt;" style="verticalLabelPosition=bottom;html=1;verticalAlign=top;strokeWidth=1;align=center;outlineConnect=0;dashed=0;outlineConnect=0;shape=mxgraph.aws3d.dashedEdge2;strokeColor=#2D6195;aspect=fixed;rotation=10;" vertex="1" parent="1">
          <mxGeometry x="35" y="285" width="100.63" height="57.32" as="geometry" />
        </mxCell>
        <mxCell id="rvcM71lpAnGpcnKJATGv-30" value="&lt;span style=&quot;color: rgba(0, 0, 0, 0); font-family: monospace; font-size: 0px; text-align: start;&quot;&gt;%3CmxGraphModel%3E%3Croot%3E%3CmxCell%20id%3D%220%22%2F%3E%3CmxCell%20id%3D%221%22%20parent%3D%220%22%2F%3E%3CmxCell%20id%3D%222%22%20value%3D%22%26lt%3Bb%26gt%3BWorker%26lt%3B%2Fb%26gt%3B%22%20style%3D%22verticalLabelPosition%3Dbottom%3Bhtml%3D1%3BverticalAlign%3Dtop%3BstrokeWidth%3D1%3Balign%3Dcenter%3BoutlineConnect%3D0%3Bdashed%3D0%3BoutlineConnect%3D0%3Bshape%3Dmxgraph.aws3d.worker%3BfillColor%3D%23ECECEC%3BstrokeColor%3D%235E5E5E%3Baspect%3Dfixed%3B%22%20vertex%3D%221%22%20parent%3D%221%22%3E%3CmxGeometry%20x%3D%22459%22%20y%3D%22-11%22%20width%3D%2274%22%20height%3D%2250%22%20as%3D%22geometry%22%2F%3E%3C%2FmxCell%3E%3C%2Froot%3E%3C%2FmxGraphModel%3E&lt;/span&gt;" style="verticalLabelPosition=bottom;html=1;verticalAlign=top;strokeWidth=1;align=center;outlineConnect=0;dashed=0;outlineConnect=0;shape=mxgraph.aws3d.dashedEdge2;strokeColor=#2D6195;aspect=fixed;" vertex="1" parent="1">
          <mxGeometry x="520" y="-38" width="247.74" height="141.13" as="geometry" />
        </mxCell>
        <mxCell id="rvcM71lpAnGpcnKJATGv-15" value="&lt;b&gt;Batch HDSF&lt;/b&gt;" style="verticalLabelPosition=bottom;html=1;verticalAlign=top;strokeWidth=1;align=center;outlineConnect=0;dashed=0;outlineConnect=0;shape=mxgraph.aws3d.s3Bucket;fillColor=#476FFF;strokeColor=#000000;aspect=fixed;" vertex="1" parent="1">
          <mxGeometry x="605.2" y="296.2" width="61.5" height="63.800000000000004" as="geometry" />
        </mxCell>
        <mxCell id="rvcM71lpAnGpcnKJATGv-16" value="&lt;span style=&quot;color: rgba(0, 0, 0, 0); font-family: monospace; font-size: 0px; text-align: start;&quot;&gt;%3CmxGraphModel%3E%3Croot%3E%3CmxCell%20id%3D%220%22%2F%3E%3CmxCell%20id%3D%221%22%20parent%3D%220%22%2F%3E%3CmxCell%20id%3D%222%22%20value%3D%22%26lt%3Bb%26gt%3BWorker%26lt%3B%2Fb%26gt%3B%22%20style%3D%22verticalLabelPosition%3Dbottom%3Bhtml%3D1%3BverticalAlign%3Dtop%3BstrokeWidth%3D1%3Balign%3Dcenter%3BoutlineConnect%3D0%3Bdashed%3D0%3BoutlineConnect%3D0%3Bshape%3Dmxgraph.aws3d.worker%3BfillColor%3D%23ECECEC%3BstrokeColor%3D%235E5E5E%3Baspect%3Dfixed%3B%22%20vertex%3D%221%22%20parent%3D%221%22%3E%3CmxGeometry%20x%3D%22459%22%20y%3D%22-11%22%20width%3D%2274%22%20height%3D%2250%22%20as%3D%22geometry%22%2F%3E%3C%2FmxCell%3E%3C%2Froot%3E%3C%2FmxGraphModel%3E&lt;/span&gt;" style="verticalLabelPosition=bottom;html=1;verticalAlign=top;strokeWidth=1;align=center;outlineConnect=0;dashed=0;outlineConnect=0;shape=mxgraph.aws3d.dashedEdge2;strokeColor=#2D6195;aspect=fixed;" vertex="1" parent="1">
          <mxGeometry x="67.94" y="313" width="88.36" height="50.33" as="geometry" />
        </mxCell>
        <mxCell id="rvcM71lpAnGpcnKJATGv-19" value="" style="verticalLabelPosition=bottom;html=1;verticalAlign=top;strokeWidth=1;align=center;outlineConnect=0;dashed=0;outlineConnect=0;shape=mxgraph.aws3d.dashedEdge2;strokeColor=#2D6195;aspect=fixed;" vertex="1" parent="1">
          <mxGeometry x="564" y="353" width="44.81" height="25.52" as="geometry" />
        </mxCell>
        <mxCell id="rvcM71lpAnGpcnKJATGv-21" value="&lt;b&gt;Worker&lt;/b&gt;" style="verticalLabelPosition=bottom;html=1;verticalAlign=top;strokeWidth=1;align=center;outlineConnect=0;dashed=0;outlineConnect=0;shape=mxgraph.aws3d.worker;fillColor=#ECECEC;strokeColor=#5E5E5E;aspect=fixed;" vertex="1" parent="1">
          <mxGeometry x="465" y="11" width="74" height="50" as="geometry" />
        </mxCell>
        <mxCell id="rvcM71lpAnGpcnKJATGv-24" value="" style="verticalLabelPosition=bottom;html=1;verticalAlign=top;strokeWidth=1;align=center;outlineConnect=0;dashed=0;outlineConnect=0;shape=mxgraph.aws3d.end_user;strokeColor=none;fillColor=#777777;aspect=fixed;" vertex="1" parent="1">
          <mxGeometry x="-22" y="272.11000000000007" width="49" height="100.46" as="geometry" />
        </mxCell>
        <mxCell id="rvcM71lpAnGpcnKJATGv-25" value="&lt;b&gt;Worker&lt;/b&gt;" style="verticalLabelPosition=bottom;html=1;verticalAlign=top;strokeWidth=1;align=center;outlineConnect=0;dashed=0;outlineConnect=0;shape=mxgraph.aws3d.worker;fillColor=#ECECEC;strokeColor=#5E5E5E;aspect=fixed;" vertex="1" parent="1">
          <mxGeometry x="527" y="48" width="74" height="50" as="geometry" />
        </mxCell>
        <mxCell id="rvcM71lpAnGpcnKJATGv-26" value="&lt;b&gt;Worker&lt;/b&gt;" style="verticalLabelPosition=bottom;html=1;verticalAlign=top;strokeWidth=1;align=center;outlineConnect=0;dashed=0;outlineConnect=0;shape=mxgraph.aws3d.worker;fillColor=#ECECEC;strokeColor=#5E5E5E;aspect=fixed;" vertex="1" parent="1">
          <mxGeometry x="591" y="86.7" width="74" height="50" as="geometry" />
        </mxCell>
        <mxCell id="rvcM71lpAnGpcnKJATGv-27" value="&lt;b&gt;Master&lt;/b&gt;&lt;div&gt;&lt;br&gt;&lt;/div&gt;" style="verticalLabelPosition=bottom;html=1;verticalAlign=top;strokeWidth=1;align=center;outlineConnect=0;dashed=0;outlineConnect=0;shape=mxgraph.aws3d.rdsMaster;fillColor=#ECECEC;strokeColor=#5E5E5E;aspect=fixed;" vertex="1" parent="1">
          <mxGeometry x="445" y="71.2" width="74.9" height="81" as="geometry" />
        </mxCell>
        <mxCell id="rvcM71lpAnGpcnKJATGv-29" value="&lt;span style=&quot;color: rgba(0, 0, 0, 0); font-family: monospace; font-size: 0px; text-align: start;&quot;&gt;%3CmxGraphModel%3E%3Croot%3E%3CmxCell%20id%3D%220%22%2F%3E%3CmxCell%20id%3D%221%22%20parent%3D%220%22%2F%3E%3CmxCell%20id%3D%222%22%20value%3D%22%26lt%3Bb%26gt%3BWorker%26lt%3B%2Fb%26gt%3B%22%20style%3D%22verticalLabelPosition%3Dbottom%3Bhtml%3D1%3BverticalAlign%3Dtop%3BstrokeWidth%3D1%3Balign%3Dcenter%3BoutlineConnect%3D0%3Bdashed%3D0%3BoutlineConnect%3D0%3Bshape%3Dmxgraph.aws3d.worker%3BfillColor%3D%23ECECEC%3BstrokeColor%3D%235E5E5E%3Baspect%3Dfixed%3B%22%20vertex%3D%221%22%20parent%3D%221%22%3E%3CmxGeometry%20x%3D%22459%22%20y%3D%22-11%22%20width%3D%2274%22%20height%3D%2250%22%20as%3D%22geometry%22%2F%3E%3C%2FmxCell%3E%3C%2Froot%3E%3C%2FmxGraphModel%3E&lt;/span&gt;" style="verticalLabelPosition=bottom;html=1;verticalAlign=top;strokeWidth=1;align=center;outlineConnect=0;dashed=0;outlineConnect=0;shape=mxgraph.aws3d.dashedEdge2;strokeColor=#2D6195;aspect=fixed;" vertex="1" parent="1">
          <mxGeometry x="412" y="52" width="64.69" height="36.85" as="geometry" />
        </mxCell>
        <mxCell id="rvcM71lpAnGpcnKJATGv-31" value="&lt;span style=&quot;color: rgba(0, 0, 0, 0); font-family: monospace; font-size: 0px; text-align: start;&quot;&gt;%3CmxGraphModel%3E%3Croot%3E%3CmxCell%20id%3D%220%22%2F%3E%3CmxCell%20id%3D%221%22%20parent%3D%220%22%2F%3E%3CmxCell%20id%3D%222%22%20value%3D%22%26lt%3Bb%26gt%3BWorker%26lt%3B%2Fb%26gt%3B%22%20style%3D%22verticalLabelPosition%3Dbottom%3Bhtml%3D1%3BverticalAlign%3Dtop%3BstrokeWidth%3D1%3Balign%3Dcenter%3BoutlineConnect%3D0%3Bdashed%3D0%3BoutlineConnect%3D0%3Bshape%3Dmxgraph.aws3d.worker%3BfillColor%3D%23ECECEC%3BstrokeColor%3D%235E5E5E%3Baspect%3Dfixed%3B%22%20vertex%3D%221%22%20parent%3D%221%22%3E%3CmxGeometry%20x%3D%22459%22%20y%3D%22-11%22%20width%3D%2274%22%20height%3D%2250%22%20as%3D%22geometry%22%2F%3E%3C%2FmxCell%3E%3C%2Froot%3E%3C%2FmxGraphModel%3E&lt;/span&gt;" style="verticalLabelPosition=bottom;html=1;verticalAlign=top;strokeWidth=1;align=center;outlineConnect=0;dashed=0;outlineConnect=0;shape=mxgraph.aws3d.dashedEdge2;strokeColor=#2D6195;aspect=fixed;" vertex="1" parent="1">
          <mxGeometry x="542" y="131" width="63.2" height="36" as="geometry" />
        </mxCell>
        <mxCell id="rvcM71lpAnGpcnKJATGv-36" value="" style="verticalLabelPosition=bottom;html=1;verticalAlign=top;strokeWidth=1;align=center;outlineConnect=0;dashed=0;outlineConnect=0;shape=mxgraph.aws3d.dashedArrowlessEdge2;strokeColor=#2D6195;aspect=fixed;" vertex="1" parent="1">
          <mxGeometry x="365" y="265.16999999999996" width="199" height="113.35" as="geometry" />
        </mxCell>
        <mxCell id="rvcM71lpAnGpcnKJATGv-37" value="" style="verticalLabelPosition=bottom;html=1;verticalAlign=top;strokeWidth=1;align=center;outlineConnect=0;dashed=0;outlineConnect=0;shape=mxgraph.aws3d.dashedArrowlessEdge2;strokeColor=#2D6195;aspect=fixed;" vertex="1" parent="1">
          <mxGeometry x="506" y="143.89" width="40.57" height="23.11" as="geometry" />
        </mxCell>
        <mxCell id="rvcM71lpAnGpcnKJATGv-38" value="" style="verticalLabelPosition=bottom;html=1;verticalAlign=top;strokeWidth=1;align=center;outlineConnect=0;dashed=0;outlineConnect=0;shape=mxgraph.aws3d.dashedArrowlessEdge2;strokeColor=#2D6195;aspect=fixed;" vertex="1" parent="1">
          <mxGeometry x="412" y="90.91" width="30" height="17.09" as="geometry" />
        </mxCell>
        <mxCell id="rvcM71lpAnGpcnKJATGv-39" value="&lt;b&gt;Database&lt;/b&gt;" style="shadow=0;dashed=0;html=1;labelPosition=center;verticalLabelPosition=bottom;verticalAlign=top;align=center;outlineConnect=0;shape=mxgraph.veeam.3d.datastore;" vertex="1" parent="1">
          <mxGeometry x="879.4700000000001" y="-26.54" width="44" height="60" as="geometry" />
        </mxCell>
        <mxCell id="rvcM71lpAnGpcnKJATGv-42" value="" style="verticalLabelPosition=bottom;html=1;verticalAlign=top;strokeWidth=1;align=center;outlineConnect=0;dashed=0;outlineConnect=0;shape=mxgraph.aws3d.end_user;strokeColor=none;fillColor=#777777;aspect=fixed;" vertex="1" parent="1">
          <mxGeometry x="30.099999999999998" y="306.2" width="48.78" height="100" as="geometry" />
        </mxCell>
        <mxCell id="rvcM71lpAnGpcnKJATGv-43" value="" style="verticalLabelPosition=bottom;html=1;verticalAlign=top;strokeWidth=1;align=center;outlineConnect=0;dashed=0;outlineConnect=0;shape=mxgraph.aws3d.end_user;strokeColor=none;fillColor=#777777;aspect=fixed;" vertex="1" parent="1">
          <mxGeometry x="84" y="335" width="49" height="100.46" as="geometry" />
        </mxCell>
        <mxCell id="rvcM71lpAnGpcnKJATGv-45" value="&lt;span style=&quot;color: rgba(0, 0, 0, 0); font-family: monospace; font-size: 0px; text-align: start;&quot;&gt;%3CmxGraphModel%3E%3Croot%3E%3CmxCell%20id%3D%220%22%2F%3E%3CmxCell%20id%3D%221%22%20parent%3D%220%22%2F%3E%3CmxCell%20id%3D%222%22%20value%3D%22%26lt%3Bb%26gt%3BWorker%26lt%3B%2Fb%26gt%3B%22%20style%3D%22verticalLabelPosition%3Dbottom%3Bhtml%3D1%3BverticalAlign%3Dtop%3BstrokeWidth%3D1%3Balign%3Dcenter%3BoutlineConnect%3D0%3Bdashed%3D0%3BoutlineConnect%3D0%3Bshape%3Dmxgraph.aws3d.worker%3BfillColor%3D%23ECECEC%3BstrokeColor%3D%235E5E5E%3Baspect%3Dfixed%3B%22%20vertex%3D%221%22%20parent%3D%221%22%3E%3CmxGeometry%20x%3D%22459%22%20y%3D%22-11%22%20width%3D%2274%22%20height%3D%2250%22%20as%3D%22geometry%22%2F%3E%3C%2FmxCell%3E%3C%2Froot%3E%3C%2FmxGraphModel%3E&lt;/span&gt;" style="verticalLabelPosition=bottom;html=1;verticalAlign=top;strokeWidth=1;align=center;outlineConnect=0;dashed=0;outlineConnect=0;shape=mxgraph.aws3d.dashedEdge2;strokeColor=#2D6195;aspect=fixed;" vertex="1" parent="1">
          <mxGeometry x="770.5" y="170" width="152.97" height="87.13" as="geometry" />
        </mxCell>
        <mxCell id="rvcM71lpAnGpcnKJATGv-46" value="&lt;b&gt;Worker&lt;/b&gt;" style="verticalLabelPosition=bottom;html=1;verticalAlign=top;strokeWidth=1;align=center;outlineConnect=0;dashed=0;outlineConnect=0;shape=mxgraph.aws3d.worker;fillColor=#ECECEC;strokeColor=#5E5E5E;aspect=fixed;" vertex="1" parent="1">
          <mxGeometry x="715.5" y="165" width="74" height="50" as="geometry" />
        </mxCell>
        <mxCell id="rvcM71lpAnGpcnKJATGv-47" value="&lt;b&gt;Worker&lt;/b&gt;" style="verticalLabelPosition=bottom;html=1;verticalAlign=top;strokeWidth=1;align=center;outlineConnect=0;dashed=0;outlineConnect=0;shape=mxgraph.aws3d.worker;fillColor=#ECECEC;strokeColor=#5E5E5E;aspect=fixed;" vertex="1" parent="1">
          <mxGeometry x="777.5" y="202" width="74" height="50" as="geometry" />
        </mxCell>
        <mxCell id="rvcM71lpAnGpcnKJATGv-48" value="&lt;b&gt;Worker&lt;/b&gt;" style="verticalLabelPosition=bottom;html=1;verticalAlign=top;strokeWidth=1;align=center;outlineConnect=0;dashed=0;outlineConnect=0;shape=mxgraph.aws3d.worker;fillColor=#ECECEC;strokeColor=#5E5E5E;aspect=fixed;" vertex="1" parent="1">
          <mxGeometry x="841.5" y="240.7" width="74" height="50" as="geometry" />
        </mxCell>
        <mxCell id="rvcM71lpAnGpcnKJATGv-49" value="&lt;b&gt;Master&lt;/b&gt;&lt;div&gt;&lt;br&gt;&lt;/div&gt;" style="verticalLabelPosition=bottom;html=1;verticalAlign=top;strokeWidth=1;align=center;outlineConnect=0;dashed=0;outlineConnect=0;shape=mxgraph.aws3d.rdsMaster;fillColor=#ECECEC;strokeColor=#5E5E5E;aspect=fixed;" vertex="1" parent="1">
          <mxGeometry x="695.5" y="225.2" width="74.9" height="81" as="geometry" />
        </mxCell>
        <mxCell id="rvcM71lpAnGpcnKJATGv-50" value="&lt;span style=&quot;color: rgba(0, 0, 0, 0); font-family: monospace; font-size: 0px; text-align: start;&quot;&gt;%3CmxGraphModel%3E%3Croot%3E%3CmxCell%20id%3D%220%22%2F%3E%3CmxCell%20id%3D%221%22%20parent%3D%220%22%2F%3E%3CmxCell%20id%3D%222%22%20value%3D%22%26lt%3Bb%26gt%3BWorker%26lt%3B%2Fb%26gt%3B%22%20style%3D%22verticalLabelPosition%3Dbottom%3Bhtml%3D1%3BverticalAlign%3Dtop%3BstrokeWidth%3D1%3Balign%3Dcenter%3BoutlineConnect%3D0%3Bdashed%3D0%3BoutlineConnect%3D0%3Bshape%3Dmxgraph.aws3d.worker%3BfillColor%3D%23ECECEC%3BstrokeColor%3D%235E5E5E%3Baspect%3Dfixed%3B%22%20vertex%3D%221%22%20parent%3D%221%22%3E%3CmxGeometry%20x%3D%22459%22%20y%3D%22-11%22%20width%3D%2274%22%20height%3D%2250%22%20as%3D%22geometry%22%2F%3E%3C%2FmxCell%3E%3C%2Froot%3E%3C%2FmxGraphModel%3E&lt;/span&gt;" style="verticalLabelPosition=bottom;html=1;verticalAlign=top;strokeWidth=1;align=center;outlineConnect=0;dashed=0;outlineConnect=0;shape=mxgraph.aws3d.dashedEdge2;strokeColor=#2D6195;aspect=fixed;" vertex="1" parent="1">
          <mxGeometry x="662.5" y="206" width="64.69" height="36.85" as="geometry" />
        </mxCell>
        <mxCell id="rvcM71lpAnGpcnKJATGv-51" value="&lt;span style=&quot;color: rgba(0, 0, 0, 0); font-family: monospace; font-size: 0px; text-align: start;&quot;&gt;%3CmxGraphModel%3E%3Croot%3E%3CmxCell%20id%3D%220%22%2F%3E%3CmxCell%20id%3D%221%22%20parent%3D%220%22%2F%3E%3CmxCell%20id%3D%222%22%20value%3D%22%26lt%3Bb%26gt%3BWorker%26lt%3B%2Fb%26gt%3B%22%20style%3D%22verticalLabelPosition%3Dbottom%3Bhtml%3D1%3BverticalAlign%3Dtop%3BstrokeWidth%3D1%3Balign%3Dcenter%3BoutlineConnect%3D0%3Bdashed%3D0%3BoutlineConnect%3D0%3Bshape%3Dmxgraph.aws3d.worker%3BfillColor%3D%23ECECEC%3BstrokeColor%3D%235E5E5E%3Baspect%3Dfixed%3B%22%20vertex%3D%221%22%20parent%3D%221%22%3E%3CmxGeometry%20x%3D%22459%22%20y%3D%22-11%22%20width%3D%2274%22%20height%3D%2250%22%20as%3D%22geometry%22%2F%3E%3C%2FmxCell%3E%3C%2Froot%3E%3C%2FmxGraphModel%3E&lt;/span&gt;" style="verticalLabelPosition=bottom;html=1;verticalAlign=top;strokeWidth=1;align=center;outlineConnect=0;dashed=0;outlineConnect=0;shape=mxgraph.aws3d.dashedEdge2;strokeColor=#2D6195;aspect=fixed;" vertex="1" parent="1">
          <mxGeometry x="792.5" y="285" width="63.2" height="36" as="geometry" />
        </mxCell>
        <mxCell id="rvcM71lpAnGpcnKJATGv-52" value="" style="verticalLabelPosition=bottom;html=1;verticalAlign=top;strokeWidth=1;align=center;outlineConnect=0;dashed=0;outlineConnect=0;shape=mxgraph.aws3d.dashedArrowlessEdge2;strokeColor=#2D6195;aspect=fixed;" vertex="1" parent="1">
          <mxGeometry x="756.5" y="297.89" width="40.57" height="23.11" as="geometry" />
        </mxCell>
        <mxCell id="rvcM71lpAnGpcnKJATGv-53" value="" style="verticalLabelPosition=bottom;html=1;verticalAlign=top;strokeWidth=1;align=center;outlineConnect=0;dashed=0;outlineConnect=0;shape=mxgraph.aws3d.dashedArrowlessEdge2;strokeColor=#2D6195;aspect=fixed;" vertex="1" parent="1">
          <mxGeometry x="662.5" y="244.91" width="30" height="17.09" as="geometry" />
        </mxCell>
        <mxCell id="rvcM71lpAnGpcnKJATGv-57" value="&lt;span style=&quot;color: rgba(0, 0, 0, 0); font-family: monospace; font-size: 0px; text-align: start;&quot;&gt;%3CmxGraphModel%3E%3Croot%3E%3CmxCell%20id%3D%220%22%2F%3E%3CmxCell%20id%3D%221%22%20parent%3D%220%22%2F%3E%3CmxCell%20id%3D%222%22%20value%3D%22%26lt%3Bb%26gt%3BWorker%26lt%3B%2Fb%26gt%3B%22%20style%3D%22verticalLabelPosition%3Dbottom%3Bhtml%3D1%3BverticalAlign%3Dtop%3BstrokeWidth%3D1%3Balign%3Dcenter%3BoutlineConnect%3D0%3Bdashed%3D0%3BoutlineConnect%3D0%3Bshape%3Dmxgraph.aws3d.worker%3BfillColor%3D%23ECECEC%3BstrokeColor%3D%235E5E5E%3Baspect%3Dfixed%3B%22%20vertex%3D%221%22%20parent%3D%221%22%3E%3CmxGeometry%20x%3D%22459%22%20y%3D%22-11%22%20width%3D%2274%22%20height%3D%2250%22%20as%3D%22geometry%22%2F%3E%3C%2FmxCell%3E%3C%2Froot%3E%3C%2FmxGraphModel%3E&lt;/span&gt;" style="verticalLabelPosition=bottom;html=1;verticalAlign=top;strokeWidth=1;align=center;outlineConnect=0;dashed=0;outlineConnect=0;shape=mxgraph.aws3d.dashedEdge2;strokeColor=#2D6195;aspect=fixed;" vertex="1" parent="1">
          <mxGeometry x="665" y="297" width="46.21" height="26.32" as="geometry" />
        </mxCell>
        <mxCell id="rvcM71lpAnGpcnKJATGv-58" value="" style="verticalLabelPosition=bottom;html=1;verticalAlign=top;strokeWidth=1;align=center;outlineConnect=0;dashed=0;outlineConnect=0;shape=mxgraph.aws3d.dashedEdge2;strokeColor=#2D6195;aspect=fixed;rotation=-120;" vertex="1" parent="1">
          <mxGeometry x="828.48" y="111.95" width="97.52" height="55.55" as="geometry" />
        </mxCell>
        <mxCell id="rvcM71lpAnGpcnKJATGv-62" value="&lt;b&gt;Kafka&lt;/b&gt;" style="points=[];aspect=fixed;html=1;align=center;shadow=0;dashed=0;fillColor=#FF6A00;strokeColor=none;shape=mxgraph.alibaba_cloud.kafka;labelPosition=center;verticalLabelPosition=bottom;verticalAlign=top;" vertex="1" parent="1">
          <mxGeometry x="156.3" y="264.2" width="56.699999999999996" height="42" as="geometry" />
        </mxCell>
        <mxCell id="rvcM71lpAnGpcnKJATGv-69" value="&lt;b&gt;Spark streaming&lt;/b&gt;" style="sketch=0;points=[[0,0,0],[0.25,0,0],[0.5,0,0],[0.75,0,0],[1,0,0],[0,1,0],[0.25,1,0],[0.5,1,0],[0.75,1,0],[1,1,0],[0,0.25,0],[0,0.5,0],[0,0.75,0],[1,0.25,0],[1,0.5,0],[1,0.75,0]];outlineConnect=0;fillColor=#f0a30a;strokeColor=#BD7000;dashed=0;verticalLabelPosition=bottom;verticalAlign=top;align=center;html=1;fontSize=12;fontStyle=0;aspect=fixed;shape=mxgraph.aws4.resourceIcon;resIcon=mxgraph.aws4.kinesis_data_streams;fontColor=#000000;" vertex="1" parent="1">
          <mxGeometry x="284" y="157" width="78" height="78" as="geometry" />
        </mxCell>
        <mxCell id="rvcM71lpAnGpcnKJATGv-70" value="&lt;span style=&quot;color: rgba(0, 0, 0, 0); font-family: monospace; font-size: 0px; text-align: start;&quot;&gt;%3CmxGraphModel%3E%3Croot%3E%3CmxCell%20id%3D%220%22%2F%3E%3CmxCell%20id%3D%221%22%20parent%3D%220%22%2F%3E%3CmxCell%20id%3D%222%22%20value%3D%22%26lt%3Bb%26gt%3BWorker%26lt%3B%2Fb%26gt%3B%22%20style%3D%22verticalLabelPosition%3Dbottom%3Bhtml%3D1%3BverticalAlign%3Dtop%3BstrokeWidth%3D1%3Balign%3Dcenter%3BoutlineConnect%3D0%3Bdashed%3D0%3BoutlineConnect%3D0%3Bshape%3Dmxgraph.aws3d.worker%3BfillColor%3D%23ECECEC%3BstrokeColor%3D%235E5E5E%3Baspect%3Dfixed%3B%22%20vertex%3D%221%22%20parent%3D%221%22%3E%3CmxGeometry%20x%3D%22459%22%20y%3D%22-11%22%20width%3D%2274%22%20height%3D%2250%22%20as%3D%22geometry%22%2F%3E%3C%2FmxCell%3E%3C%2Froot%3E%3C%2FmxGraphModel%3E&lt;/span&gt;" style="verticalLabelPosition=bottom;html=1;verticalAlign=top;strokeWidth=1;align=center;outlineConnect=0;dashed=0;outlineConnect=0;shape=mxgraph.aws3d.dashedEdge2;strokeColor=#2D6195;aspect=fixed;" vertex="1" parent="1">
          <mxGeometry x="213" y="237" width="64.99" height="37.02" as="geometry" />
        </mxCell>
        <mxCell id="rvcM71lpAnGpcnKJATGv-71" value="&lt;span style=&quot;color: rgba(0, 0, 0, 0); font-family: monospace; font-size: 0px; text-align: start;&quot;&gt;%3CmxGraphModel%3E%3Croot%3E%3CmxCell%20id%3D%220%22%2F%3E%3CmxCell%20id%3D%221%22%20parent%3D%220%22%2F%3E%3CmxCell%20id%3D%222%22%20value%3D%22%26lt%3Bb%26gt%3BWorker%26lt%3B%2Fb%26gt%3B%22%20style%3D%22verticalLabelPosition%3Dbottom%3Bhtml%3D1%3BverticalAlign%3Dtop%3BstrokeWidth%3D1%3Balign%3Dcenter%3BoutlineConnect%3D0%3Bdashed%3D0%3BoutlineConnect%3D0%3Bshape%3Dmxgraph.aws3d.worker%3BfillColor%3D%23ECECEC%3BstrokeColor%3D%235E5E5E%3Baspect%3Dfixed%3B%22%20vertex%3D%221%22%20parent%3D%221%22%3E%3CmxGeometry%20x%3D%22459%22%20y%3D%22-11%22%20width%3D%2274%22%20height%3D%2250%22%20as%3D%22geometry%22%2F%3E%3C%2FmxCell%3E%3C%2Froot%3E%3C%2FmxGraphModel%3E&lt;/span&gt;" style="verticalLabelPosition=bottom;html=1;verticalAlign=top;strokeWidth=1;align=center;outlineConnect=0;dashed=0;outlineConnect=0;shape=mxgraph.aws3d.dashedEdge2;strokeColor=#2D6195;aspect=fixed;" vertex="1" parent="1">
          <mxGeometry x="365" y="143.89" width="87.42" height="49.79" as="geometry" />
        </mxCell>
        <mxCell id="rvcM71lpAnGpcnKJATGv-72" value="Stream user" style="verticalLabelPosition=bottom;html=1;verticalAlign=top;strokeWidth=1;align=center;outlineConnect=0;dashed=0;outlineConnect=0;shape=mxgraph.aws3d.end_user;strokeColor=#BD7000;fillColor=#f0a30a;aspect=fixed;fontColor=#000000;" vertex="1" parent="1">
          <mxGeometry x="756.5" y="-127" width="49" height="100.46" as="geometry" />
        </mxCell>
        <mxCell id="rvcM71lpAnGpcnKJATGv-73" value="" style="verticalLabelPosition=bottom;html=1;verticalAlign=top;strokeWidth=1;align=center;outlineConnect=0;dashed=0;outlineConnect=0;shape=mxgraph.aws3d.dashedEdge2;strokeColor=#2D6195;aspect=fixed;rotation=60;" vertex="1" parent="1">
          <mxGeometry x="663" y="22.56" width="85.4" height="48.65" as="geometry" />
        </mxCell>
        <mxCell id="rvcM71lpAnGpcnKJATGv-74" value="&lt;b&gt;Batch user&lt;/b&gt;" style="verticalLabelPosition=bottom;html=1;verticalAlign=top;strokeWidth=1;align=center;outlineConnect=0;dashed=0;outlineConnect=0;shape=mxgraph.aws3d.end_user;strokeColor=#000000;fillColor=#284CFF;aspect=fixed;fontColor=#000000;" vertex="1" parent="1">
          <mxGeometry x="1001" y="7.539999999999998" width="49" height="100.46" as="geometry" />
        </mxCell>
        <mxCell id="rvcM71lpAnGpcnKJATGv-75" value="&lt;b&gt;Concate node&lt;/b&gt;" style="verticalLabelPosition=bottom;html=1;verticalAlign=top;strokeWidth=1;align=center;outlineConnect=0;dashed=0;outlineConnect=0;shape=mxgraph.aws3d.lambda;fillColor=#ECECEC;strokeColor=#5E5E5E;aspect=fixed;" vertex="1" parent="1">
          <mxGeometry x="756.5" y="46" width="62.37" height="74.24" as="geometry" />
        </mxCell>
        <mxCell id="rvcM71lpAnGpcnKJATGv-76" value="" style="verticalLabelPosition=bottom;html=1;verticalAlign=top;strokeWidth=1;align=center;outlineConnect=0;dashed=0;outlineConnect=0;shape=mxgraph.aws3d.dashedEdge2;strokeColor=#2D6195;aspect=fixed;" vertex="1" parent="1">
          <mxGeometry x="824.1" y="36" width="49.15" height="28" as="geometry" />
        </mxCell>
        <mxCell id="rvcM71lpAnGpcnKJATGv-77" value="" style="verticalLabelPosition=bottom;html=1;verticalAlign=top;strokeWidth=1;align=center;outlineConnect=0;dashed=0;outlineConnect=0;shape=mxgraph.aws3d.dashedEdge2;strokeColor=#2D6195;aspect=fixed;rotation=-120;" vertex="1" parent="1">
          <mxGeometry x="810.68" y="-42.94" width="65.23" height="37.16" as="geometry" />
        </mxCell>
        <mxCell id="rvcM71lpAnGpcnKJATGv-79" value="" style="verticalLabelPosition=bottom;html=1;verticalAlign=top;strokeWidth=1;align=center;outlineConnect=0;dashed=0;outlineConnect=0;shape=mxgraph.aws3d.dashedEdge2;strokeColor=#2D6195;aspect=fixed;rotation=60;" vertex="1" parent="1">
          <mxGeometry x="926" y="22.56" width="66.71" height="38" as="geometry" />
        </mxCell>
      </root>
    </mxGraphModel>
  </diagram>
  <diagram id="wNZGb_oqvt37zgi2-W2m" name="Page-2">
    <mxGraphModel dx="2087" dy="1334" grid="0" gridSize="10" guides="1" tooltips="1" connect="1" arrows="1" fold="1" page="0" pageScale="1" pageWidth="850" pageHeight="1100" math="0" shadow="0">
      <root>
        <mxCell id="0" />
        <mxCell id="1" parent="0" />
        <mxCell id="JjCa2JtznTJZUC-wy070-69" value="" style="rounded=0;whiteSpace=wrap;html=1;" parent="1" vertex="1">
          <mxGeometry x="435" y="67.39" width="732" height="346.07" as="geometry" />
        </mxCell>
        <mxCell id="JjCa2JtznTJZUC-wy070-1" value="&lt;b&gt;Worker&lt;/b&gt;" style="verticalLabelPosition=bottom;html=1;verticalAlign=top;strokeWidth=1;align=center;outlineConnect=0;dashed=0;outlineConnect=0;shape=mxgraph.aws3d.worker;fillColor=#ECECEC;strokeColor=#5E5E5E;aspect=fixed;" parent="1" vertex="1">
          <mxGeometry x="97" y="181" width="74" height="50" as="geometry" />
        </mxCell>
        <mxCell id="JjCa2JtznTJZUC-wy070-2" value="&lt;b&gt;Worker&lt;/b&gt;" style="verticalLabelPosition=bottom;html=1;verticalAlign=top;strokeWidth=1;align=center;outlineConnect=0;dashed=0;outlineConnect=0;shape=mxgraph.aws3d.worker;fillColor=#ECECEC;strokeColor=#5E5E5E;aspect=fixed;" parent="1" vertex="1">
          <mxGeometry x="159" y="218" width="74" height="50" as="geometry" />
        </mxCell>
        <mxCell id="JjCa2JtznTJZUC-wy070-3" value="&lt;b&gt;Worker&lt;/b&gt;" style="verticalLabelPosition=bottom;html=1;verticalAlign=top;strokeWidth=1;align=center;outlineConnect=0;dashed=0;outlineConnect=0;shape=mxgraph.aws3d.worker;fillColor=#ECECEC;strokeColor=#5E5E5E;aspect=fixed;" parent="1" vertex="1">
          <mxGeometry x="223" y="256.7" width="74" height="50" as="geometry" />
        </mxCell>
        <mxCell id="JjCa2JtznTJZUC-wy070-4" value="&lt;b&gt;Master&lt;/b&gt;&lt;div&gt;&lt;br&gt;&lt;/div&gt;" style="verticalLabelPosition=bottom;html=1;verticalAlign=top;strokeWidth=1;align=center;outlineConnect=0;dashed=0;outlineConnect=0;shape=mxgraph.aws3d.rdsMaster;fillColor=#ECECEC;strokeColor=#5E5E5E;aspect=fixed;" parent="1" vertex="1">
          <mxGeometry x="77" y="241.2" width="74.9" height="81" as="geometry" />
        </mxCell>
        <mxCell id="JjCa2JtznTJZUC-wy070-5" value="&lt;span style=&quot;color: rgba(0, 0, 0, 0); font-family: monospace; font-size: 0px; text-align: start;&quot;&gt;%3CmxGraphModel%3E%3Croot%3E%3CmxCell%20id%3D%220%22%2F%3E%3CmxCell%20id%3D%221%22%20parent%3D%220%22%2F%3E%3CmxCell%20id%3D%222%22%20value%3D%22%26lt%3Bb%26gt%3BWorker%26lt%3B%2Fb%26gt%3B%22%20style%3D%22verticalLabelPosition%3Dbottom%3Bhtml%3D1%3BverticalAlign%3Dtop%3BstrokeWidth%3D1%3Balign%3Dcenter%3BoutlineConnect%3D0%3Bdashed%3D0%3BoutlineConnect%3D0%3Bshape%3Dmxgraph.aws3d.worker%3BfillColor%3D%23ECECEC%3BstrokeColor%3D%235E5E5E%3Baspect%3Dfixed%3B%22%20vertex%3D%221%22%20parent%3D%221%22%3E%3CmxGeometry%20x%3D%22459%22%20y%3D%22-11%22%20width%3D%2274%22%20height%3D%2250%22%20as%3D%22geometry%22%2F%3E%3C%2FmxCell%3E%3C%2Froot%3E%3C%2FmxGraphModel%3E&lt;/span&gt;" style="verticalLabelPosition=bottom;html=1;verticalAlign=top;strokeWidth=1;align=center;outlineConnect=0;dashed=0;outlineConnect=0;shape=mxgraph.aws3d.dashedEdge2;strokeColor=#2D6195;aspect=fixed;" parent="1" vertex="1">
          <mxGeometry x="44" y="222" width="64.69" height="36.85" as="geometry" />
        </mxCell>
        <mxCell id="JjCa2JtznTJZUC-wy070-6" value="&lt;span style=&quot;color: rgba(0, 0, 0, 0); font-family: monospace; font-size: 0px; text-align: start;&quot;&gt;%3CmxGraphModel%3E%3Croot%3E%3CmxCell%20id%3D%220%22%2F%3E%3CmxCell%20id%3D%221%22%20parent%3D%220%22%2F%3E%3CmxCell%20id%3D%222%22%20value%3D%22%26lt%3Bb%26gt%3BWorker%26lt%3B%2Fb%26gt%3B%22%20style%3D%22verticalLabelPosition%3Dbottom%3Bhtml%3D1%3BverticalAlign%3Dtop%3BstrokeWidth%3D1%3Balign%3Dcenter%3BoutlineConnect%3D0%3Bdashed%3D0%3BoutlineConnect%3D0%3Bshape%3Dmxgraph.aws3d.worker%3BfillColor%3D%23ECECEC%3BstrokeColor%3D%235E5E5E%3Baspect%3Dfixed%3B%22%20vertex%3D%221%22%20parent%3D%221%22%3E%3CmxGeometry%20x%3D%22459%22%20y%3D%22-11%22%20width%3D%2274%22%20height%3D%2250%22%20as%3D%22geometry%22%2F%3E%3C%2FmxCell%3E%3C%2Froot%3E%3C%2FmxGraphModel%3E&lt;/span&gt;" style="verticalLabelPosition=bottom;html=1;verticalAlign=top;strokeWidth=1;align=center;outlineConnect=0;dashed=0;outlineConnect=0;shape=mxgraph.aws3d.dashedEdge2;strokeColor=#2D6195;aspect=fixed;" parent="1" vertex="1">
          <mxGeometry x="174" y="301" width="63.2" height="36" as="geometry" />
        </mxCell>
        <mxCell id="JjCa2JtznTJZUC-wy070-7" value="" style="verticalLabelPosition=bottom;html=1;verticalAlign=top;strokeWidth=1;align=center;outlineConnect=0;dashed=0;outlineConnect=0;shape=mxgraph.aws3d.dashedArrowlessEdge2;strokeColor=#2D6195;aspect=fixed;" parent="1" vertex="1">
          <mxGeometry x="138" y="313.89" width="40.57" height="23.11" as="geometry" />
        </mxCell>
        <mxCell id="JjCa2JtznTJZUC-wy070-8" value="" style="verticalLabelPosition=bottom;html=1;verticalAlign=top;strokeWidth=1;align=center;outlineConnect=0;dashed=0;outlineConnect=0;shape=mxgraph.aws3d.dashedArrowlessEdge2;strokeColor=#2D6195;aspect=fixed;" parent="1" vertex="1">
          <mxGeometry x="44" y="260.90999999999997" width="30" height="17.09" as="geometry" />
        </mxCell>
        <mxCell id="JjCa2JtznTJZUC-wy070-9" value="" style="verticalLabelPosition=bottom;html=1;verticalAlign=top;strokeWidth=1;align=center;outlineConnect=0;dashed=0;outlineConnect=0;shape=mxgraph.aws3d.dashedArrowlessEdge2;strokeColor=#d79b00;aspect=fixed;fillColor=#ffe6cc;" parent="1" vertex="1">
          <mxGeometry x="145" y="162.03" width="212.37" height="120.97" as="geometry" />
        </mxCell>
        <mxCell id="JjCa2JtznTJZUC-wy070-18" value="" style="verticalLabelPosition=bottom;html=1;verticalAlign=top;strokeWidth=1;align=center;outlineConnect=0;dashed=0;outlineConnect=0;shape=mxgraph.aws3d.dashedArrowlessEdge2;strokeColor=#d79b00;aspect=fixed;rotation=120;fillColor=#ffe6cc;" parent="1" vertex="1">
          <mxGeometry x="171.3" y="288.03" width="182.54" height="103.98" as="geometry" />
        </mxCell>
        <mxCell id="JjCa2JtznTJZUC-wy070-19" value="" style="verticalLabelPosition=bottom;html=1;verticalAlign=top;strokeWidth=1;align=center;outlineConnect=0;dashed=0;outlineConnect=0;shape=mxgraph.aws3d.dashedArrowlessEdge2;strokeColor=#d79b00;aspect=fixed;fillColor=#ffe6cc;" parent="1" vertex="1">
          <mxGeometry x="-43" y="273" width="214" height="121.89" as="geometry" />
        </mxCell>
        <mxCell id="JjCa2JtznTJZUC-wy070-20" value="" style="verticalLabelPosition=bottom;html=1;verticalAlign=top;strokeWidth=1;align=center;outlineConnect=0;dashed=0;outlineConnect=0;shape=mxgraph.aws3d.dashedArrowlessEdge2;strokeColor=#d79b00;aspect=fixed;rotation=120;fillColor=#ffe6cc;" parent="1" vertex="1">
          <mxGeometry x="-44.53999999999999" y="165.99999999999997" width="182.54" height="103.98" as="geometry" />
        </mxCell>
        <mxCell id="JjCa2JtznTJZUC-wy070-23" value="&lt;b&gt;Stream processing&lt;/b&gt;" style="text;html=1;align=center;verticalAlign=middle;resizable=0;points=[];autosize=1;strokeColor=none;fillColor=none;" parent="1" vertex="1">
          <mxGeometry x="95.28999999999999" y="402" width="126" height="26" as="geometry" />
        </mxCell>
        <mxCell id="JjCa2JtznTJZUC-wy070-24" value="" style="verticalLabelPosition=bottom;html=1;verticalAlign=top;strokeWidth=1;align=center;outlineConnect=0;dashed=0;outlineConnect=0;shape=mxgraph.aws3d.dashedArrowlessEdge2;strokeColor=#808080;aspect=fixed;rotation=5;fillOpacity=100;strokeOpacity=50;" parent="1" vertex="1">
          <mxGeometry x="286.49" y="321.21" width="137.88" height="78.54" as="geometry" />
        </mxCell>
        <mxCell id="JjCa2JtznTJZUC-wy070-25" value="" style="verticalLabelPosition=bottom;html=1;verticalAlign=top;strokeWidth=1;align=center;outlineConnect=0;dashed=0;outlineConnect=0;shape=mxgraph.aws3d.dashedArrowlessEdge2;strokeColor=#808080;aspect=fixed;rotation=-75;gradientColor=none;strokeOpacity=50;" parent="1" vertex="1">
          <mxGeometry x="253.91" y="98.68" width="199.11" height="113.41" as="geometry" />
        </mxCell>
        <mxCell id="JjCa2JtznTJZUC-wy070-59" value="&lt;font style=&quot;font-size: 40px;&quot;&gt;Incremental matrix factorization&lt;/font&gt;" style="text;html=1;align=center;verticalAlign=middle;resizable=0;points=[];autosize=1;strokeColor=none;fillColor=none;" parent="1" vertex="1">
          <mxGeometry x="507.5" y="-29" width="571" height="60" as="geometry" />
        </mxCell>
        <mxCell id="JjCa2JtznTJZUC-wy070-68" value="" style="group" parent="1" vertex="1" connectable="0">
          <mxGeometry x="452.5" y="72.46000000000001" width="248" height="134" as="geometry" />
        </mxCell>
        <mxCell id="JjCa2JtznTJZUC-wy070-29" value="" style="shape=table;startSize=0;container=1;collapsible=0;childLayout=tableLayout;fontSize=16;" parent="JjCa2JtznTJZUC-wy070-68" vertex="1">
          <mxGeometry x="21" y="37" width="214" height="88" as="geometry" />
        </mxCell>
        <mxCell id="JjCa2JtznTJZUC-wy070-45" style="shape=tableRow;horizontal=0;startSize=0;swimlaneHead=0;swimlaneBody=0;strokeColor=inherit;top=0;left=0;bottom=0;right=0;collapsible=0;dropTarget=0;fillColor=none;points=[[0,0.5],[1,0.5]];portConstraint=eastwest;fontSize=16;" parent="JjCa2JtznTJZUC-wy070-29" vertex="1">
          <mxGeometry width="214" height="22" as="geometry" />
        </mxCell>
        <mxCell id="JjCa2JtznTJZUC-wy070-46" value="" style="shape=partialRectangle;html=1;whiteSpace=wrap;connectable=0;strokeColor=inherit;overflow=hidden;fillColor=none;top=0;left=0;bottom=0;right=0;pointerEvents=1;fontSize=16;" parent="JjCa2JtznTJZUC-wy070-45" vertex="1">
          <mxGeometry width="54" height="22" as="geometry">
            <mxRectangle width="54" height="22" as="alternateBounds" />
          </mxGeometry>
        </mxCell>
        <mxCell id="JjCa2JtznTJZUC-wy070-47" value="---" style="shape=partialRectangle;html=1;whiteSpace=wrap;connectable=0;strokeColor=inherit;overflow=hidden;fillColor=none;top=0;left=0;bottom=0;right=0;pointerEvents=1;fontSize=16;" parent="JjCa2JtznTJZUC-wy070-45" vertex="1">
          <mxGeometry x="54" width="53" height="22" as="geometry">
            <mxRectangle width="53" height="22" as="alternateBounds" />
          </mxGeometry>
        </mxCell>
        <mxCell id="JjCa2JtznTJZUC-wy070-48" value="" style="shape=partialRectangle;html=1;whiteSpace=wrap;connectable=0;strokeColor=inherit;overflow=hidden;fillColor=none;top=0;left=0;bottom=0;right=0;pointerEvents=1;fontSize=16;" parent="JjCa2JtznTJZUC-wy070-45" vertex="1">
          <mxGeometry x="107" width="54" height="22" as="geometry">
            <mxRectangle width="54" height="22" as="alternateBounds" />
          </mxGeometry>
        </mxCell>
        <mxCell id="JjCa2JtznTJZUC-wy070-49" value="" style="shape=partialRectangle;html=1;whiteSpace=wrap;connectable=0;strokeColor=inherit;overflow=hidden;fillColor=none;top=0;left=0;bottom=0;right=0;pointerEvents=1;fontSize=16;" parent="JjCa2JtznTJZUC-wy070-45" vertex="1">
          <mxGeometry x="161" width="53" height="22" as="geometry">
            <mxRectangle width="53" height="22" as="alternateBounds" />
          </mxGeometry>
        </mxCell>
        <mxCell id="JjCa2JtznTJZUC-wy070-30" value="" style="shape=tableRow;horizontal=0;startSize=0;swimlaneHead=0;swimlaneBody=0;strokeColor=inherit;top=0;left=0;bottom=0;right=0;collapsible=0;dropTarget=0;fillColor=none;points=[[0,0.5],[1,0.5]];portConstraint=eastwest;fontSize=16;" parent="JjCa2JtznTJZUC-wy070-29" vertex="1">
          <mxGeometry y="22" width="214" height="22" as="geometry" />
        </mxCell>
        <mxCell id="JjCa2JtznTJZUC-wy070-31" value="" style="shape=partialRectangle;html=1;whiteSpace=wrap;connectable=0;strokeColor=inherit;overflow=hidden;fillColor=none;top=0;left=0;bottom=0;right=0;pointerEvents=1;fontSize=16;" parent="JjCa2JtznTJZUC-wy070-30" vertex="1">
          <mxGeometry width="54" height="22" as="geometry">
            <mxRectangle width="54" height="22" as="alternateBounds" />
          </mxGeometry>
        </mxCell>
        <mxCell id="JjCa2JtznTJZUC-wy070-32" value="---" style="shape=partialRectangle;html=1;whiteSpace=wrap;connectable=0;strokeColor=inherit;overflow=hidden;fillColor=none;top=0;left=0;bottom=0;right=0;pointerEvents=1;fontSize=16;" parent="JjCa2JtznTJZUC-wy070-30" vertex="1">
          <mxGeometry x="54" width="53" height="22" as="geometry">
            <mxRectangle width="53" height="22" as="alternateBounds" />
          </mxGeometry>
        </mxCell>
        <mxCell id="JjCa2JtznTJZUC-wy070-33" value="" style="shape=partialRectangle;html=1;whiteSpace=wrap;connectable=0;strokeColor=inherit;overflow=hidden;fillColor=none;top=0;left=0;bottom=0;right=0;pointerEvents=1;fontSize=16;" parent="JjCa2JtznTJZUC-wy070-30" vertex="1">
          <mxGeometry x="107" width="54" height="22" as="geometry">
            <mxRectangle width="54" height="22" as="alternateBounds" />
          </mxGeometry>
        </mxCell>
        <mxCell id="JjCa2JtznTJZUC-wy070-42" value="" style="shape=partialRectangle;html=1;whiteSpace=wrap;connectable=0;strokeColor=inherit;overflow=hidden;fillColor=none;top=0;left=0;bottom=0;right=0;pointerEvents=1;fontSize=16;" parent="JjCa2JtznTJZUC-wy070-30" vertex="1">
          <mxGeometry x="161" width="53" height="22" as="geometry">
            <mxRectangle width="53" height="22" as="alternateBounds" />
          </mxGeometry>
        </mxCell>
        <mxCell id="JjCa2JtznTJZUC-wy070-34" value="" style="shape=tableRow;horizontal=0;startSize=0;swimlaneHead=0;swimlaneBody=0;strokeColor=inherit;top=0;left=0;bottom=0;right=0;collapsible=0;dropTarget=0;fillColor=none;points=[[0,0.5],[1,0.5]];portConstraint=eastwest;fontSize=16;" parent="JjCa2JtznTJZUC-wy070-29" vertex="1">
          <mxGeometry y="44" width="214" height="22" as="geometry" />
        </mxCell>
        <mxCell id="JjCa2JtznTJZUC-wy070-35" value="---" style="shape=partialRectangle;html=1;whiteSpace=wrap;connectable=0;strokeColor=inherit;overflow=hidden;fillColor=none;top=0;left=0;bottom=0;right=0;pointerEvents=1;fontSize=16;" parent="JjCa2JtznTJZUC-wy070-34" vertex="1">
          <mxGeometry width="54" height="22" as="geometry">
            <mxRectangle width="54" height="22" as="alternateBounds" />
          </mxGeometry>
        </mxCell>
        <mxCell id="JjCa2JtznTJZUC-wy070-36" value="---" style="shape=partialRectangle;html=1;whiteSpace=wrap;connectable=0;strokeColor=inherit;overflow=hidden;fillColor=none;top=0;left=0;bottom=0;right=0;pointerEvents=1;fontSize=16;" parent="JjCa2JtznTJZUC-wy070-34" vertex="1">
          <mxGeometry x="54" width="53" height="22" as="geometry">
            <mxRectangle width="53" height="22" as="alternateBounds" />
          </mxGeometry>
        </mxCell>
        <mxCell id="JjCa2JtznTJZUC-wy070-37" value="---" style="shape=partialRectangle;html=1;whiteSpace=wrap;connectable=0;strokeColor=inherit;overflow=hidden;fillColor=none;top=0;left=0;bottom=0;right=0;pointerEvents=1;fontSize=16;" parent="JjCa2JtznTJZUC-wy070-34" vertex="1">
          <mxGeometry x="107" width="54" height="22" as="geometry">
            <mxRectangle width="54" height="22" as="alternateBounds" />
          </mxGeometry>
        </mxCell>
        <mxCell id="JjCa2JtznTJZUC-wy070-43" value="---" style="shape=partialRectangle;html=1;whiteSpace=wrap;connectable=0;strokeColor=inherit;overflow=hidden;fillColor=none;top=0;left=0;bottom=0;right=0;pointerEvents=1;fontSize=16;" parent="JjCa2JtznTJZUC-wy070-34" vertex="1">
          <mxGeometry x="161" width="53" height="22" as="geometry">
            <mxRectangle width="53" height="22" as="alternateBounds" />
          </mxGeometry>
        </mxCell>
        <mxCell id="JjCa2JtznTJZUC-wy070-38" value="" style="shape=tableRow;horizontal=0;startSize=0;swimlaneHead=0;swimlaneBody=0;strokeColor=inherit;top=0;left=0;bottom=0;right=0;collapsible=0;dropTarget=0;fillColor=none;points=[[0,0.5],[1,0.5]];portConstraint=eastwest;fontSize=16;" parent="JjCa2JtznTJZUC-wy070-29" vertex="1">
          <mxGeometry y="66" width="214" height="22" as="geometry" />
        </mxCell>
        <mxCell id="JjCa2JtznTJZUC-wy070-39" value="" style="shape=partialRectangle;html=1;whiteSpace=wrap;connectable=0;strokeColor=inherit;overflow=hidden;fillColor=none;top=0;left=0;bottom=0;right=0;pointerEvents=1;fontSize=16;" parent="JjCa2JtznTJZUC-wy070-38" vertex="1">
          <mxGeometry width="54" height="22" as="geometry">
            <mxRectangle width="54" height="22" as="alternateBounds" />
          </mxGeometry>
        </mxCell>
        <mxCell id="JjCa2JtznTJZUC-wy070-40" value="---" style="shape=partialRectangle;html=1;whiteSpace=wrap;connectable=0;strokeColor=inherit;overflow=hidden;fillColor=none;top=0;left=0;bottom=0;right=0;pointerEvents=1;fontSize=16;" parent="JjCa2JtznTJZUC-wy070-38" vertex="1">
          <mxGeometry x="54" width="53" height="22" as="geometry">
            <mxRectangle width="53" height="22" as="alternateBounds" />
          </mxGeometry>
        </mxCell>
        <mxCell id="JjCa2JtznTJZUC-wy070-41" value="" style="shape=partialRectangle;html=1;whiteSpace=wrap;connectable=0;strokeColor=inherit;overflow=hidden;fillColor=none;top=0;left=0;bottom=0;right=0;pointerEvents=1;fontSize=16;" parent="JjCa2JtznTJZUC-wy070-38" vertex="1">
          <mxGeometry x="107" width="54" height="22" as="geometry">
            <mxRectangle width="54" height="22" as="alternateBounds" />
          </mxGeometry>
        </mxCell>
        <mxCell id="JjCa2JtznTJZUC-wy070-44" value="" style="shape=partialRectangle;html=1;whiteSpace=wrap;connectable=0;strokeColor=inherit;overflow=hidden;fillColor=none;top=0;left=0;bottom=0;right=0;pointerEvents=1;fontSize=16;" parent="JjCa2JtznTJZUC-wy070-38" vertex="1">
          <mxGeometry x="161" width="53" height="22" as="geometry">
            <mxRectangle width="53" height="22" as="alternateBounds" />
          </mxGeometry>
        </mxCell>
        <mxCell id="JjCa2JtznTJZUC-wy070-50" value="&lt;b&gt;Interact history&lt;/b&gt;" style="text;html=1;align=center;verticalAlign=middle;resizable=0;points=[];autosize=1;strokeColor=none;fillColor=none;" parent="JjCa2JtznTJZUC-wy070-68" vertex="1">
          <mxGeometry x="75.5" width="105" height="26" as="geometry" />
        </mxCell>
        <mxCell id="JjCa2JtznTJZUC-wy070-51" value="" style="shadow=0;dashed=0;html=1;strokeColor=none;fillColor=#4495D1;labelPosition=center;verticalLabelPosition=bottom;verticalAlign=top;align=center;outlineConnect=0;shape=mxgraph.veeam.checked_doc;" parent="JjCa2JtznTJZUC-wy070-68" vertex="1">
          <mxGeometry x="41" y="40" width="15" height="17" as="geometry" />
        </mxCell>
        <mxCell id="JjCa2JtznTJZUC-wy070-53" value="" style="shadow=0;dashed=0;html=1;strokeColor=#6F0000;fillColor=#a20025;labelPosition=center;verticalLabelPosition=bottom;verticalAlign=top;align=center;outlineConnect=0;shape=mxgraph.veeam.checked_doc;fontColor=#ffffff;" parent="JjCa2JtznTJZUC-wy070-68" vertex="1">
          <mxGeometry x="149" y="40" width="15" height="17" as="geometry" />
        </mxCell>
        <mxCell id="JjCa2JtznTJZUC-wy070-54" value="" style="shadow=0;dashed=0;html=1;strokeColor=#A50040;fillColor=#d80073;labelPosition=center;verticalLabelPosition=bottom;verticalAlign=top;align=center;outlineConnect=0;shape=mxgraph.veeam.checked_doc;fontColor=#ffffff;" parent="JjCa2JtznTJZUC-wy070-68" vertex="1">
          <mxGeometry x="204" y="40" width="15" height="17" as="geometry" />
        </mxCell>
        <mxCell id="JjCa2JtznTJZUC-wy070-55" value="" style="verticalLabelPosition=bottom;html=1;verticalAlign=top;align=center;strokeColor=none;fillColor=#00BEF2;shape=mxgraph.azure.user;" parent="JjCa2JtznTJZUC-wy070-68" vertex="1">
          <mxGeometry y="40" width="14" height="15" as="geometry" />
        </mxCell>
        <mxCell id="JjCa2JtznTJZUC-wy070-56" value="" style="verticalLabelPosition=bottom;html=1;verticalAlign=top;align=center;strokeColor=#2D7600;fillColor=#60a917;shape=mxgraph.azure.user;fontColor=#ffffff;" parent="JjCa2JtznTJZUC-wy070-68" vertex="1">
          <mxGeometry y="61" width="14" height="15" as="geometry" />
        </mxCell>
        <mxCell id="JjCa2JtznTJZUC-wy070-58" value="" style="verticalLabelPosition=bottom;html=1;verticalAlign=top;align=center;strokeColor=#6F0000;fillColor=#a20025;shape=mxgraph.azure.user;fontColor=#ffffff;" parent="JjCa2JtznTJZUC-wy070-68" vertex="1">
          <mxGeometry y="106.03" width="14" height="15" as="geometry" />
        </mxCell>
        <mxCell id="JjCa2JtznTJZUC-wy070-62" value="" style="shadow=0;dashed=0;html=1;strokeColor=#3700CC;fillColor=#6a00ff;labelPosition=center;verticalLabelPosition=bottom;verticalAlign=top;align=center;outlineConnect=0;shape=mxgraph.veeam.checked_doc;fontColor=#ffffff;" parent="JjCa2JtznTJZUC-wy070-68" vertex="1">
          <mxGeometry x="41" y="63" width="15" height="17" as="geometry" />
        </mxCell>
        <mxCell id="JjCa2JtznTJZUC-wy070-63" value="" style="shadow=0;dashed=0;html=1;strokeColor=#005700;fillColor=#008a00;labelPosition=center;verticalLabelPosition=bottom;verticalAlign=top;align=center;outlineConnect=0;shape=mxgraph.veeam.checked_doc;fontColor=#ffffff;" parent="JjCa2JtznTJZUC-wy070-68" vertex="1">
          <mxGeometry x="41" y="106.03" width="15" height="17" as="geometry" />
        </mxCell>
        <mxCell id="JjCa2JtznTJZUC-wy070-64" value="" style="shadow=0;dashed=0;html=1;strokeColor=#6D1F00;fillColor=#a0522d;labelPosition=center;verticalLabelPosition=bottom;verticalAlign=top;align=center;outlineConnect=0;shape=mxgraph.veeam.checked_doc;fontColor=#ffffff;" parent="JjCa2JtznTJZUC-wy070-68" vertex="1">
          <mxGeometry x="149" y="63" width="15" height="17" as="geometry" />
        </mxCell>
        <mxCell id="JjCa2JtznTJZUC-wy070-65" value="" style="shadow=0;dashed=0;html=1;strokeColor=#314354;fillColor=#647687;labelPosition=center;verticalLabelPosition=bottom;verticalAlign=top;align=center;outlineConnect=0;shape=mxgraph.veeam.checked_doc;fontColor=#ffffff;" parent="JjCa2JtznTJZUC-wy070-68" vertex="1">
          <mxGeometry x="149" y="106.03" width="15" height="17" as="geometry" />
        </mxCell>
        <mxCell id="JjCa2JtznTJZUC-wy070-66" value="" style="shadow=0;dashed=0;html=1;strokeColor=#36393d;fillColor=#cdeb8b;labelPosition=center;verticalLabelPosition=bottom;verticalAlign=top;align=center;outlineConnect=0;shape=mxgraph.veeam.checked_doc;" parent="JjCa2JtznTJZUC-wy070-68" vertex="1">
          <mxGeometry x="204" y="63" width="15" height="17" as="geometry" />
        </mxCell>
        <mxCell id="JjCa2JtznTJZUC-wy070-67" value="" style="shadow=0;dashed=0;html=1;strokeColor=#36393d;fillColor=#cdeb8b;labelPosition=center;verticalLabelPosition=bottom;verticalAlign=top;align=center;outlineConnect=0;shape=mxgraph.veeam.checked_doc;" parent="JjCa2JtznTJZUC-wy070-68" vertex="1">
          <mxGeometry x="204" y="106.03" width="15" height="17" as="geometry" />
        </mxCell>
        <mxCell id="JjCa2JtznTJZUC-wy070-71" value="New interact" style="rounded=0;whiteSpace=wrap;html=1;fillColor=none;dashed=1;strokeColor=#2346FF;labelPosition=right;verticalLabelPosition=middle;align=left;verticalAlign=middle;" parent="1" vertex="1">
          <mxGeometry x="630.5" y="171.46" width="60" height="29.5" as="geometry" />
        </mxCell>
        <mxCell id="JjCa2JtznTJZUC-wy070-72" value="" style="group" parent="1" vertex="1" connectable="0">
          <mxGeometry x="446.5" y="249.46" width="248" height="134" as="geometry" />
        </mxCell>
        <mxCell id="JjCa2JtznTJZUC-wy070-73" value="" style="shape=table;startSize=0;container=1;collapsible=0;childLayout=tableLayout;fontSize=16;" parent="JjCa2JtznTJZUC-wy070-72" vertex="1">
          <mxGeometry x="21" y="37" width="214" height="88" as="geometry" />
        </mxCell>
        <mxCell id="JjCa2JtznTJZUC-wy070-74" style="shape=tableRow;horizontal=0;startSize=0;swimlaneHead=0;swimlaneBody=0;strokeColor=inherit;top=0;left=0;bottom=0;right=0;collapsible=0;dropTarget=0;fillColor=none;points=[[0,0.5],[1,0.5]];portConstraint=eastwest;fontSize=16;" parent="JjCa2JtznTJZUC-wy070-73" vertex="1">
          <mxGeometry width="214" height="22" as="geometry" />
        </mxCell>
        <mxCell id="JjCa2JtznTJZUC-wy070-75" value="0" style="shape=partialRectangle;html=1;whiteSpace=wrap;connectable=0;strokeColor=inherit;overflow=hidden;fillColor=none;top=0;left=0;bottom=0;right=0;pointerEvents=1;fontSize=16;" parent="JjCa2JtznTJZUC-wy070-74" vertex="1">
          <mxGeometry width="54" height="22" as="geometry">
            <mxRectangle width="54" height="22" as="alternateBounds" />
          </mxGeometry>
        </mxCell>
        <mxCell id="JjCa2JtznTJZUC-wy070-76" value="---" style="shape=partialRectangle;html=1;whiteSpace=wrap;connectable=0;strokeColor=inherit;overflow=hidden;fillColor=none;top=0;left=0;bottom=0;right=0;pointerEvents=1;fontSize=16;" parent="JjCa2JtznTJZUC-wy070-74" vertex="1">
          <mxGeometry x="54" width="53" height="22" as="geometry">
            <mxRectangle width="53" height="22" as="alternateBounds" />
          </mxGeometry>
        </mxCell>
        <mxCell id="JjCa2JtznTJZUC-wy070-77" value="1" style="shape=partialRectangle;html=1;whiteSpace=wrap;connectable=0;strokeColor=inherit;overflow=hidden;fillColor=none;top=0;left=0;bottom=0;right=0;pointerEvents=1;fontSize=16;" parent="JjCa2JtznTJZUC-wy070-74" vertex="1">
          <mxGeometry x="107" width="54" height="22" as="geometry">
            <mxRectangle width="54" height="22" as="alternateBounds" />
          </mxGeometry>
        </mxCell>
        <mxCell id="JjCa2JtznTJZUC-wy070-78" value="0" style="shape=partialRectangle;html=1;whiteSpace=wrap;connectable=0;strokeColor=inherit;overflow=hidden;fillColor=none;top=0;left=0;bottom=0;right=0;pointerEvents=1;fontSize=16;" parent="JjCa2JtznTJZUC-wy070-74" vertex="1">
          <mxGeometry x="161" width="53" height="22" as="geometry">
            <mxRectangle width="53" height="22" as="alternateBounds" />
          </mxGeometry>
        </mxCell>
        <mxCell id="JjCa2JtznTJZUC-wy070-79" value="" style="shape=tableRow;horizontal=0;startSize=0;swimlaneHead=0;swimlaneBody=0;strokeColor=inherit;top=0;left=0;bottom=0;right=0;collapsible=0;dropTarget=0;fillColor=none;points=[[0,0.5],[1,0.5]];portConstraint=eastwest;fontSize=16;" parent="JjCa2JtznTJZUC-wy070-73" vertex="1">
          <mxGeometry y="22" width="214" height="22" as="geometry" />
        </mxCell>
        <mxCell id="JjCa2JtznTJZUC-wy070-80" value="1" style="shape=partialRectangle;html=1;whiteSpace=wrap;connectable=0;strokeColor=inherit;overflow=hidden;fillColor=none;top=0;left=0;bottom=0;right=0;pointerEvents=1;fontSize=16;" parent="JjCa2JtznTJZUC-wy070-79" vertex="1">
          <mxGeometry width="54" height="22" as="geometry">
            <mxRectangle width="54" height="22" as="alternateBounds" />
          </mxGeometry>
        </mxCell>
        <mxCell id="JjCa2JtznTJZUC-wy070-81" value="---" style="shape=partialRectangle;html=1;whiteSpace=wrap;connectable=0;strokeColor=inherit;overflow=hidden;fillColor=none;top=0;left=0;bottom=0;right=0;pointerEvents=1;fontSize=16;" parent="JjCa2JtznTJZUC-wy070-79" vertex="1">
          <mxGeometry x="54" width="53" height="22" as="geometry">
            <mxRectangle width="53" height="22" as="alternateBounds" />
          </mxGeometry>
        </mxCell>
        <mxCell id="JjCa2JtznTJZUC-wy070-82" value="0" style="shape=partialRectangle;html=1;whiteSpace=wrap;connectable=0;strokeColor=inherit;overflow=hidden;fillColor=none;top=0;left=0;bottom=0;right=0;pointerEvents=1;fontSize=16;" parent="JjCa2JtznTJZUC-wy070-79" vertex="1">
          <mxGeometry x="107" width="54" height="22" as="geometry">
            <mxRectangle width="54" height="22" as="alternateBounds" />
          </mxGeometry>
        </mxCell>
        <mxCell id="JjCa2JtznTJZUC-wy070-83" value="0" style="shape=partialRectangle;html=1;whiteSpace=wrap;connectable=0;strokeColor=inherit;overflow=hidden;fillColor=none;top=0;left=0;bottom=0;right=0;pointerEvents=1;fontSize=16;" parent="JjCa2JtznTJZUC-wy070-79" vertex="1">
          <mxGeometry x="161" width="53" height="22" as="geometry">
            <mxRectangle width="53" height="22" as="alternateBounds" />
          </mxGeometry>
        </mxCell>
        <mxCell id="JjCa2JtznTJZUC-wy070-84" value="" style="shape=tableRow;horizontal=0;startSize=0;swimlaneHead=0;swimlaneBody=0;strokeColor=inherit;top=0;left=0;bottom=0;right=0;collapsible=0;dropTarget=0;fillColor=none;points=[[0,0.5],[1,0.5]];portConstraint=eastwest;fontSize=16;" parent="JjCa2JtznTJZUC-wy070-73" vertex="1">
          <mxGeometry y="44" width="214" height="22" as="geometry" />
        </mxCell>
        <mxCell id="JjCa2JtznTJZUC-wy070-85" value="---" style="shape=partialRectangle;html=1;whiteSpace=wrap;connectable=0;strokeColor=inherit;overflow=hidden;fillColor=none;top=0;left=0;bottom=0;right=0;pointerEvents=1;fontSize=16;" parent="JjCa2JtznTJZUC-wy070-84" vertex="1">
          <mxGeometry width="54" height="22" as="geometry">
            <mxRectangle width="54" height="22" as="alternateBounds" />
          </mxGeometry>
        </mxCell>
        <mxCell id="JjCa2JtznTJZUC-wy070-86" value="---" style="shape=partialRectangle;html=1;whiteSpace=wrap;connectable=0;strokeColor=inherit;overflow=hidden;fillColor=none;top=0;left=0;bottom=0;right=0;pointerEvents=1;fontSize=16;" parent="JjCa2JtznTJZUC-wy070-84" vertex="1">
          <mxGeometry x="54" width="53" height="22" as="geometry">
            <mxRectangle width="53" height="22" as="alternateBounds" />
          </mxGeometry>
        </mxCell>
        <mxCell id="JjCa2JtznTJZUC-wy070-87" value="---" style="shape=partialRectangle;html=1;whiteSpace=wrap;connectable=0;strokeColor=inherit;overflow=hidden;fillColor=none;top=0;left=0;bottom=0;right=0;pointerEvents=1;fontSize=16;" parent="JjCa2JtznTJZUC-wy070-84" vertex="1">
          <mxGeometry x="107" width="54" height="22" as="geometry">
            <mxRectangle width="54" height="22" as="alternateBounds" />
          </mxGeometry>
        </mxCell>
        <mxCell id="JjCa2JtznTJZUC-wy070-88" value="---" style="shape=partialRectangle;html=1;whiteSpace=wrap;connectable=0;strokeColor=inherit;overflow=hidden;fillColor=none;top=0;left=0;bottom=0;right=0;pointerEvents=1;fontSize=16;" parent="JjCa2JtznTJZUC-wy070-84" vertex="1">
          <mxGeometry x="161" width="53" height="22" as="geometry">
            <mxRectangle width="53" height="22" as="alternateBounds" />
          </mxGeometry>
        </mxCell>
        <mxCell id="JjCa2JtznTJZUC-wy070-89" value="" style="shape=tableRow;horizontal=0;startSize=0;swimlaneHead=0;swimlaneBody=0;strokeColor=inherit;top=0;left=0;bottom=0;right=0;collapsible=0;dropTarget=0;fillColor=none;points=[[0,0.5],[1,0.5]];portConstraint=eastwest;fontSize=16;" parent="JjCa2JtznTJZUC-wy070-73" vertex="1">
          <mxGeometry y="66" width="214" height="22" as="geometry" />
        </mxCell>
        <mxCell id="JjCa2JtznTJZUC-wy070-90" value="1" style="shape=partialRectangle;html=1;whiteSpace=wrap;connectable=0;strokeColor=inherit;overflow=hidden;fillColor=none;top=0;left=0;bottom=0;right=0;pointerEvents=1;fontSize=16;" parent="JjCa2JtznTJZUC-wy070-89" vertex="1">
          <mxGeometry width="54" height="22" as="geometry">
            <mxRectangle width="54" height="22" as="alternateBounds" />
          </mxGeometry>
        </mxCell>
        <mxCell id="JjCa2JtznTJZUC-wy070-91" value="---" style="shape=partialRectangle;html=1;whiteSpace=wrap;connectable=0;strokeColor=inherit;overflow=hidden;fillColor=none;top=0;left=0;bottom=0;right=0;pointerEvents=1;fontSize=16;" parent="JjCa2JtznTJZUC-wy070-89" vertex="1">
          <mxGeometry x="54" width="53" height="22" as="geometry">
            <mxRectangle width="53" height="22" as="alternateBounds" />
          </mxGeometry>
        </mxCell>
        <mxCell id="JjCa2JtznTJZUC-wy070-92" value="1" style="shape=partialRectangle;html=1;whiteSpace=wrap;connectable=0;strokeColor=inherit;overflow=hidden;fillColor=none;top=0;left=0;bottom=0;right=0;pointerEvents=1;fontSize=16;" parent="JjCa2JtznTJZUC-wy070-89" vertex="1">
          <mxGeometry x="107" width="54" height="22" as="geometry">
            <mxRectangle width="54" height="22" as="alternateBounds" />
          </mxGeometry>
        </mxCell>
        <mxCell id="JjCa2JtznTJZUC-wy070-93" value="0" style="shape=partialRectangle;html=1;whiteSpace=wrap;connectable=0;strokeColor=inherit;overflow=hidden;fillColor=none;top=0;left=0;bottom=0;right=0;pointerEvents=1;fontSize=16;" parent="JjCa2JtznTJZUC-wy070-89" vertex="1">
          <mxGeometry x="161" width="53" height="22" as="geometry">
            <mxRectangle width="53" height="22" as="alternateBounds" />
          </mxGeometry>
        </mxCell>
        <mxCell id="JjCa2JtznTJZUC-wy070-95" value="" style="shadow=0;dashed=0;html=1;strokeColor=none;fillColor=#4495D1;labelPosition=center;verticalLabelPosition=bottom;verticalAlign=top;align=center;outlineConnect=0;shape=mxgraph.veeam.checked_doc;" parent="JjCa2JtznTJZUC-wy070-72" vertex="1">
          <mxGeometry y="40" width="15" height="17" as="geometry" />
        </mxCell>
        <mxCell id="JjCa2JtznTJZUC-wy070-97" value="" style="shadow=0;dashed=0;html=1;strokeColor=#A50040;fillColor=#d80073;labelPosition=center;verticalLabelPosition=bottom;verticalAlign=top;align=center;outlineConnect=0;shape=mxgraph.veeam.checked_doc;fontColor=#ffffff;" parent="JjCa2JtznTJZUC-wy070-72" vertex="1">
          <mxGeometry y="106.03" width="15" height="17" as="geometry" />
        </mxCell>
        <mxCell id="JjCa2JtznTJZUC-wy070-108" value="" style="shadow=0;dashed=0;html=1;strokeColor=#36393d;fillColor=#cdeb8b;labelPosition=center;verticalLabelPosition=bottom;verticalAlign=top;align=center;outlineConnect=0;shape=mxgraph.veeam.checked_doc;" parent="JjCa2JtznTJZUC-wy070-72" vertex="1">
          <mxGeometry y="63" width="15" height="17" as="geometry" />
        </mxCell>
        <mxCell id="JjCa2JtznTJZUC-wy070-109" value="Match course" style="rounded=0;whiteSpace=wrap;html=1;fillColor=none;dashed=1;strokeColor=#2346FF;labelPosition=right;verticalLabelPosition=middle;align=left;verticalAlign=middle;" parent="JjCa2JtznTJZUC-wy070-72" vertex="1">
          <mxGeometry x="-7" y="55" width="252" height="30" as="geometry" />
        </mxCell>
        <mxCell id="JjCa2JtznTJZUC-wy070-110" value="" style="group;labelPosition=left;verticalLabelPosition=middle;align=right;verticalAlign=middle;" parent="1" vertex="1" connectable="0">
          <mxGeometry x="843.5" y="75.46000000000001" width="248" height="134" as="geometry" />
        </mxCell>
        <mxCell id="JjCa2JtznTJZUC-wy070-111" value="" style="shape=table;startSize=0;container=1;collapsible=0;childLayout=tableLayout;fontSize=16;" parent="JjCa2JtznTJZUC-wy070-110" vertex="1">
          <mxGeometry x="21" y="37" width="214" height="88" as="geometry" />
        </mxCell>
        <mxCell id="JjCa2JtznTJZUC-wy070-112" style="shape=tableRow;horizontal=0;startSize=0;swimlaneHead=0;swimlaneBody=0;strokeColor=inherit;top=0;left=0;bottom=0;right=0;collapsible=0;dropTarget=0;fillColor=none;points=[[0,0.5],[1,0.5]];portConstraint=eastwest;fontSize=16;" parent="JjCa2JtznTJZUC-wy070-111" vertex="1">
          <mxGeometry width="214" height="22" as="geometry" />
        </mxCell>
        <mxCell id="JjCa2JtznTJZUC-wy070-113" value="0" style="shape=partialRectangle;html=1;whiteSpace=wrap;connectable=0;strokeColor=inherit;overflow=hidden;fillColor=none;top=0;left=0;bottom=0;right=0;pointerEvents=1;fontSize=16;" parent="JjCa2JtznTJZUC-wy070-112" vertex="1">
          <mxGeometry width="54" height="22" as="geometry">
            <mxRectangle width="54" height="22" as="alternateBounds" />
          </mxGeometry>
        </mxCell>
        <mxCell id="JjCa2JtznTJZUC-wy070-114" value="---" style="shape=partialRectangle;html=1;whiteSpace=wrap;connectable=0;strokeColor=inherit;overflow=hidden;fillColor=none;top=0;left=0;bottom=0;right=0;pointerEvents=1;fontSize=16;" parent="JjCa2JtznTJZUC-wy070-112" vertex="1">
          <mxGeometry x="54" width="53" height="22" as="geometry">
            <mxRectangle width="53" height="22" as="alternateBounds" />
          </mxGeometry>
        </mxCell>
        <mxCell id="JjCa2JtznTJZUC-wy070-115" value="1" style="shape=partialRectangle;html=1;whiteSpace=wrap;connectable=0;strokeColor=inherit;overflow=hidden;fillColor=none;top=0;left=0;bottom=0;right=0;pointerEvents=1;fontSize=16;" parent="JjCa2JtznTJZUC-wy070-112" vertex="1">
          <mxGeometry x="107" width="54" height="22" as="geometry">
            <mxRectangle width="54" height="22" as="alternateBounds" />
          </mxGeometry>
        </mxCell>
        <mxCell id="JjCa2JtznTJZUC-wy070-116" value="0" style="shape=partialRectangle;html=1;whiteSpace=wrap;connectable=0;strokeColor=inherit;overflow=hidden;fillColor=none;top=0;left=0;bottom=0;right=0;pointerEvents=1;fontSize=16;" parent="JjCa2JtznTJZUC-wy070-112" vertex="1">
          <mxGeometry x="161" width="53" height="22" as="geometry">
            <mxRectangle width="53" height="22" as="alternateBounds" />
          </mxGeometry>
        </mxCell>
        <mxCell id="JjCa2JtznTJZUC-wy070-117" value="" style="shape=tableRow;horizontal=0;startSize=0;swimlaneHead=0;swimlaneBody=0;strokeColor=inherit;top=0;left=0;bottom=0;right=0;collapsible=0;dropTarget=0;fillColor=none;points=[[0,0.5],[1,0.5]];portConstraint=eastwest;fontSize=16;" parent="JjCa2JtznTJZUC-wy070-111" vertex="1">
          <mxGeometry y="22" width="214" height="22" as="geometry" />
        </mxCell>
        <mxCell id="JjCa2JtznTJZUC-wy070-118" value="1" style="shape=partialRectangle;html=1;whiteSpace=wrap;connectable=0;strokeColor=inherit;overflow=hidden;fillColor=none;top=0;left=0;bottom=0;right=0;pointerEvents=1;fontSize=16;" parent="JjCa2JtznTJZUC-wy070-117" vertex="1">
          <mxGeometry width="54" height="22" as="geometry">
            <mxRectangle width="54" height="22" as="alternateBounds" />
          </mxGeometry>
        </mxCell>
        <mxCell id="JjCa2JtznTJZUC-wy070-119" value="---" style="shape=partialRectangle;html=1;whiteSpace=wrap;connectable=0;strokeColor=inherit;overflow=hidden;fillColor=none;top=0;left=0;bottom=0;right=0;pointerEvents=1;fontSize=16;" parent="JjCa2JtznTJZUC-wy070-117" vertex="1">
          <mxGeometry x="54" width="53" height="22" as="geometry">
            <mxRectangle width="53" height="22" as="alternateBounds" />
          </mxGeometry>
        </mxCell>
        <mxCell id="JjCa2JtznTJZUC-wy070-120" value="0" style="shape=partialRectangle;html=1;whiteSpace=wrap;connectable=0;strokeColor=inherit;overflow=hidden;fillColor=none;top=0;left=0;bottom=0;right=0;pointerEvents=1;fontSize=16;" parent="JjCa2JtznTJZUC-wy070-117" vertex="1">
          <mxGeometry x="107" width="54" height="22" as="geometry">
            <mxRectangle width="54" height="22" as="alternateBounds" />
          </mxGeometry>
        </mxCell>
        <mxCell id="JjCa2JtznTJZUC-wy070-121" value="0" style="shape=partialRectangle;html=1;whiteSpace=wrap;connectable=0;strokeColor=inherit;overflow=hidden;fillColor=none;top=0;left=0;bottom=0;right=0;pointerEvents=1;fontSize=16;" parent="JjCa2JtznTJZUC-wy070-117" vertex="1">
          <mxGeometry x="161" width="53" height="22" as="geometry">
            <mxRectangle width="53" height="22" as="alternateBounds" />
          </mxGeometry>
        </mxCell>
        <mxCell id="JjCa2JtznTJZUC-wy070-122" value="" style="shape=tableRow;horizontal=0;startSize=0;swimlaneHead=0;swimlaneBody=0;strokeColor=inherit;top=0;left=0;bottom=0;right=0;collapsible=0;dropTarget=0;fillColor=none;points=[[0,0.5],[1,0.5]];portConstraint=eastwest;fontSize=16;" parent="JjCa2JtznTJZUC-wy070-111" vertex="1">
          <mxGeometry y="44" width="214" height="22" as="geometry" />
        </mxCell>
        <mxCell id="JjCa2JtznTJZUC-wy070-123" value="---" style="shape=partialRectangle;html=1;whiteSpace=wrap;connectable=0;strokeColor=inherit;overflow=hidden;fillColor=none;top=0;left=0;bottom=0;right=0;pointerEvents=1;fontSize=16;" parent="JjCa2JtznTJZUC-wy070-122" vertex="1">
          <mxGeometry width="54" height="22" as="geometry">
            <mxRectangle width="54" height="22" as="alternateBounds" />
          </mxGeometry>
        </mxCell>
        <mxCell id="JjCa2JtznTJZUC-wy070-124" value="---" style="shape=partialRectangle;html=1;whiteSpace=wrap;connectable=0;strokeColor=inherit;overflow=hidden;fillColor=none;top=0;left=0;bottom=0;right=0;pointerEvents=1;fontSize=16;" parent="JjCa2JtznTJZUC-wy070-122" vertex="1">
          <mxGeometry x="54" width="53" height="22" as="geometry">
            <mxRectangle width="53" height="22" as="alternateBounds" />
          </mxGeometry>
        </mxCell>
        <mxCell id="JjCa2JtznTJZUC-wy070-125" value="---" style="shape=partialRectangle;html=1;whiteSpace=wrap;connectable=0;strokeColor=inherit;overflow=hidden;fillColor=none;top=0;left=0;bottom=0;right=0;pointerEvents=1;fontSize=16;" parent="JjCa2JtznTJZUC-wy070-122" vertex="1">
          <mxGeometry x="107" width="54" height="22" as="geometry">
            <mxRectangle width="54" height="22" as="alternateBounds" />
          </mxGeometry>
        </mxCell>
        <mxCell id="JjCa2JtznTJZUC-wy070-126" value="---" style="shape=partialRectangle;html=1;whiteSpace=wrap;connectable=0;strokeColor=inherit;overflow=hidden;fillColor=none;top=0;left=0;bottom=0;right=0;pointerEvents=1;fontSize=16;" parent="JjCa2JtznTJZUC-wy070-122" vertex="1">
          <mxGeometry x="161" width="53" height="22" as="geometry">
            <mxRectangle width="53" height="22" as="alternateBounds" />
          </mxGeometry>
        </mxCell>
        <mxCell id="JjCa2JtznTJZUC-wy070-127" value="" style="shape=tableRow;horizontal=0;startSize=0;swimlaneHead=0;swimlaneBody=0;strokeColor=inherit;top=0;left=0;bottom=0;right=0;collapsible=0;dropTarget=0;fillColor=none;points=[[0,0.5],[1,0.5]];portConstraint=eastwest;fontSize=16;" parent="JjCa2JtznTJZUC-wy070-111" vertex="1">
          <mxGeometry y="66" width="214" height="22" as="geometry" />
        </mxCell>
        <mxCell id="JjCa2JtznTJZUC-wy070-128" value="1" style="shape=partialRectangle;html=1;whiteSpace=wrap;connectable=0;strokeColor=inherit;overflow=hidden;fillColor=none;top=0;left=0;bottom=0;right=0;pointerEvents=1;fontSize=16;" parent="JjCa2JtznTJZUC-wy070-127" vertex="1">
          <mxGeometry width="54" height="22" as="geometry">
            <mxRectangle width="54" height="22" as="alternateBounds" />
          </mxGeometry>
        </mxCell>
        <mxCell id="JjCa2JtznTJZUC-wy070-129" value="---" style="shape=partialRectangle;html=1;whiteSpace=wrap;connectable=0;strokeColor=inherit;overflow=hidden;fillColor=none;top=0;left=0;bottom=0;right=0;pointerEvents=1;fontSize=16;" parent="JjCa2JtznTJZUC-wy070-127" vertex="1">
          <mxGeometry x="54" width="53" height="22" as="geometry">
            <mxRectangle width="53" height="22" as="alternateBounds" />
          </mxGeometry>
        </mxCell>
        <mxCell id="JjCa2JtznTJZUC-wy070-130" value="1" style="shape=partialRectangle;html=1;whiteSpace=wrap;connectable=0;strokeColor=inherit;overflow=hidden;fillColor=none;top=0;left=0;bottom=0;right=0;pointerEvents=1;fontSize=16;" parent="JjCa2JtznTJZUC-wy070-127" vertex="1">
          <mxGeometry x="107" width="54" height="22" as="geometry">
            <mxRectangle width="54" height="22" as="alternateBounds" />
          </mxGeometry>
        </mxCell>
        <mxCell id="JjCa2JtznTJZUC-wy070-131" value="0" style="shape=partialRectangle;html=1;whiteSpace=wrap;connectable=0;strokeColor=inherit;overflow=hidden;fillColor=none;top=0;left=0;bottom=0;right=0;pointerEvents=1;fontSize=16;" parent="JjCa2JtznTJZUC-wy070-127" vertex="1">
          <mxGeometry x="161" width="53" height="22" as="geometry">
            <mxRectangle width="53" height="22" as="alternateBounds" />
          </mxGeometry>
        </mxCell>
        <mxCell id="JjCa2JtznTJZUC-wy070-132" value="&lt;b&gt;User pretrained vector&lt;/b&gt;" style="text;html=1;align=center;verticalAlign=middle;resizable=0;points=[];autosize=1;strokeColor=none;fillColor=none;" parent="JjCa2JtznTJZUC-wy070-110" vertex="1">
          <mxGeometry x="55.5" width="146" height="26" as="geometry" />
        </mxCell>
        <mxCell id="JjCa2JtznTJZUC-wy070-136" value="Match user" style="rounded=0;whiteSpace=wrap;html=1;fillColor=none;dashed=1;strokeColor=#2346FF;labelPosition=left;verticalLabelPosition=middle;align=right;verticalAlign=middle;" parent="JjCa2JtznTJZUC-wy070-110" vertex="1">
          <mxGeometry x="-4.75" y="99" width="248.75" height="30" as="geometry" />
        </mxCell>
        <mxCell id="JjCa2JtznTJZUC-wy070-139" value="" style="verticalLabelPosition=bottom;html=1;verticalAlign=top;align=center;strokeColor=none;fillColor=#00BEF2;shape=mxgraph.azure.user;" parent="JjCa2JtznTJZUC-wy070-110" vertex="1">
          <mxGeometry y="40" width="14" height="15" as="geometry" />
        </mxCell>
        <mxCell id="JjCa2JtznTJZUC-wy070-138" value="" style="verticalLabelPosition=bottom;html=1;verticalAlign=top;align=center;strokeColor=#2D7600;fillColor=#60a917;shape=mxgraph.azure.user;fontColor=#ffffff;" parent="JjCa2JtznTJZUC-wy070-110" vertex="1">
          <mxGeometry y="62" width="14" height="15" as="geometry" />
        </mxCell>
        <mxCell id="JjCa2JtznTJZUC-wy070-137" value="" style="verticalLabelPosition=bottom;html=1;verticalAlign=top;align=center;strokeColor=#6F0000;fillColor=#a20025;shape=mxgraph.azure.user;fontColor=#ffffff;" parent="JjCa2JtznTJZUC-wy070-110" vertex="1">
          <mxGeometry x="2" y="106.5" width="14" height="15" as="geometry" />
        </mxCell>
        <mxCell id="JjCa2JtznTJZUC-wy070-142" value="" style="html=1;shadow=0;dashed=0;align=center;verticalAlign=middle;shape=mxgraph.arrows2.bendArrow;dy=15;dx=38;notch=0;arrowHead=55;rounded=0;rotation=90;direction=west;flipV=1;" parent="1" vertex="1">
          <mxGeometry x="513.2" y="93.16" width="72.51" height="281.05" as="geometry" />
        </mxCell>
        <mxCell id="JjCa2JtznTJZUC-wy070-143" value="&lt;b&gt;Streaming data&lt;/b&gt;" style="text;html=1;align=center;verticalAlign=middle;resizable=0;points=[];autosize=1;strokeColor=none;fillColor=none;" parent="1" vertex="1">
          <mxGeometry x="505.5" y="242.66" width="105" height="26" as="geometry" />
        </mxCell>
        <mxCell id="JjCa2JtznTJZUC-wy070-153" style="edgeStyle=orthogonalEdgeStyle;rounded=0;orthogonalLoop=1;jettySize=auto;html=1;exitX=0.5;exitY=0;exitDx=0;exitDy=0;entryX=0.25;entryY=1;entryDx=0;entryDy=0;" parent="1" source="JjCa2JtznTJZUC-wy070-149" target="JjCa2JtznTJZUC-wy070-136" edge="1">
          <mxGeometry relative="1" as="geometry" />
        </mxCell>
        <mxCell id="JjCa2JtznTJZUC-wy070-154" value="Update user vector" style="edgeLabel;html=1;align=center;verticalAlign=middle;resizable=0;points=[];" parent="JjCa2JtznTJZUC-wy070-153" vertex="1" connectable="0">
          <mxGeometry x="0.2416" y="4" relative="1" as="geometry">
            <mxPoint x="4" y="16" as="offset" />
          </mxGeometry>
        </mxCell>
        <mxCell id="JjCa2JtznTJZUC-wy070-149" value="&lt;b&gt;SGD&amp;nbsp;&lt;/b&gt;" style="rounded=1;whiteSpace=wrap;html=1;" parent="1" vertex="1">
          <mxGeometry x="854" y="278" width="94" height="45" as="geometry" />
        </mxCell>
        <mxCell id="JjCa2JtznTJZUC-wy070-150" style="edgeStyle=orthogonalEdgeStyle;rounded=0;orthogonalLoop=1;jettySize=auto;html=1;exitX=1;exitY=0.25;exitDx=0;exitDy=0;entryX=0;entryY=0.75;entryDx=0;entryDy=0;" parent="1" source="JjCa2JtznTJZUC-wy070-109" target="JjCa2JtznTJZUC-wy070-149" edge="1">
          <mxGeometry relative="1" as="geometry" />
        </mxCell>
        <mxCell id="JjCa2JtznTJZUC-wy070-152" style="edgeStyle=orthogonalEdgeStyle;rounded=0;orthogonalLoop=1;jettySize=auto;html=1;exitX=0;exitY=0.75;exitDx=0;exitDy=0;entryX=0;entryY=0.25;entryDx=0;entryDy=0;" parent="1" source="JjCa2JtznTJZUC-wy070-136" target="JjCa2JtznTJZUC-wy070-149" edge="1">
          <mxGeometry relative="1" as="geometry" />
        </mxCell>
        <mxCell id="JjCa2JtznTJZUC-wy070-168" value="Old vector" style="edgeLabel;html=1;align=center;verticalAlign=middle;resizable=0;points=[];" parent="JjCa2JtznTJZUC-wy070-152" vertex="1" connectable="0">
          <mxGeometry x="-0.0981" y="-2" relative="1" as="geometry">
            <mxPoint as="offset" />
          </mxGeometry>
        </mxCell>
        <mxCell id="JjCa2JtznTJZUC-wy070-161" value="&lt;b&gt;Ranking&lt;/b&gt;" style="rounded=1;whiteSpace=wrap;html=1;" parent="1" vertex="1">
          <mxGeometry x="978.5" y="225.66" width="94" height="60" as="geometry" />
        </mxCell>
        <mxCell id="JjCa2JtznTJZUC-wy070-164" style="edgeStyle=orthogonalEdgeStyle;rounded=0;orthogonalLoop=1;jettySize=auto;html=1;entryX=0.5;entryY=1;entryDx=0;entryDy=0;" parent="1" source="JjCa2JtznTJZUC-wy070-94" target="JjCa2JtznTJZUC-wy070-161" edge="1">
          <mxGeometry relative="1" as="geometry" />
        </mxCell>
        <mxCell id="JjCa2JtznTJZUC-wy070-94" value="&lt;b&gt;Course pretrained vector&lt;/b&gt;" style="text;html=1;align=center;verticalAlign=middle;resizable=0;points=[];autosize=1;strokeColor=none;fillColor=none;" parent="1" vertex="1">
          <mxGeometry x="492" y="377.46" width="161" height="26" as="geometry" />
        </mxCell>
        <mxCell id="JjCa2JtznTJZUC-wy070-165" value="Real-time recommend" style="html=1;shadow=0;dashed=0;align=center;verticalAlign=middle;shape=mxgraph.arrows2.arrow;dy=0.6;dx=40;notch=0;" parent="1" vertex="1">
          <mxGeometry x="1077" y="220.66" width="144" height="70" as="geometry" />
        </mxCell>
        <mxCell id="JjCa2JtznTJZUC-wy070-167" value="Updated vector" style="edgeStyle=orthogonalEdgeStyle;rounded=0;orthogonalLoop=1;jettySize=auto;html=1;exitX=1;exitY=0.5;exitDx=0;exitDy=0;entryX=0.5;entryY=0;entryDx=0;entryDy=0;" parent="1" source="JjCa2JtznTJZUC-wy070-136" target="JjCa2JtznTJZUC-wy070-161" edge="1">
          <mxGeometry relative="1" as="geometry">
            <Array as="points">
              <mxPoint x="1108" y="190" />
              <mxPoint x="1108" y="212" />
              <mxPoint x="1025" y="212" />
            </Array>
          </mxGeometry>
        </mxCell>
        <mxCell id="GlBO8IlwNGcwlefL19M_-1" style="edgeStyle=orthogonalEdgeStyle;rounded=0;orthogonalLoop=1;jettySize=auto;html=1;entryX=1;entryY=0;entryDx=0;entryDy=0;" edge="1" parent="1" source="JjCa2JtznTJZUC-wy070-71" target="JjCa2JtznTJZUC-wy070-109">
          <mxGeometry relative="1" as="geometry">
            <Array as="points">
              <mxPoint x="738" y="186" />
              <mxPoint x="738" y="279" />
              <mxPoint x="692" y="279" />
              <mxPoint x="692" y="305" />
            </Array>
          </mxGeometry>
        </mxCell>
        <mxCell id="GlBO8IlwNGcwlefL19M_-2" style="edgeStyle=orthogonalEdgeStyle;rounded=0;orthogonalLoop=1;jettySize=auto;html=1;exitX=1;exitY=0.5;exitDx=0;exitDy=0;entryX=1;entryY=0.75;entryDx=0;entryDy=0;" edge="1" parent="1" source="JjCa2JtznTJZUC-wy070-149" target="JjCa2JtznTJZUC-wy070-109">
          <mxGeometry relative="1" as="geometry">
            <mxPoint x="746" y="411" as="sourcePoint" />
            <mxPoint x="709" y="329" as="targetPoint" />
            <Array as="points">
              <mxPoint x="948" y="296" />
              <mxPoint x="968" y="296" />
              <mxPoint x="968" y="348" />
              <mxPoint x="692" y="348" />
            </Array>
          </mxGeometry>
        </mxCell>
        <mxCell id="GlBO8IlwNGcwlefL19M_-4" value="Update course vector" style="edgeLabel;html=1;align=center;verticalAlign=middle;resizable=0;points=[];" vertex="1" connectable="0" parent="GlBO8IlwNGcwlefL19M_-2">
          <mxGeometry x="0.2716" relative="1" as="geometry">
            <mxPoint as="offset" />
          </mxGeometry>
        </mxCell>
      </root>
    </mxGraphModel>
  </diagram>
  <diagram id="4cYqyUQx7bNCcw8uIEHU" name="Page-3">
    <mxGraphModel dx="1942" dy="1394" grid="0" gridSize="10" guides="1" tooltips="1" connect="1" arrows="1" fold="1" page="0" pageScale="1" pageWidth="850" pageHeight="1100" math="0" shadow="0">
      <root>
        <mxCell id="0" />
        <mxCell id="1" parent="0" />
        <mxCell id="uHX1zcfRRRmrokzf6Jgu-1" value="" style="rounded=0;whiteSpace=wrap;html=1;" vertex="1" parent="1">
          <mxGeometry x="435" y="67.39" width="732" height="346.07" as="geometry" />
        </mxCell>
        <mxCell id="uHX1zcfRRRmrokzf6Jgu-2" value="&lt;b&gt;Worker&lt;/b&gt;" style="verticalLabelPosition=bottom;html=1;verticalAlign=top;strokeWidth=1;align=center;outlineConnect=0;dashed=0;outlineConnect=0;shape=mxgraph.aws3d.worker;fillColor=#ECECEC;strokeColor=#5E5E5E;aspect=fixed;" vertex="1" parent="1">
          <mxGeometry x="97" y="181" width="74" height="50" as="geometry" />
        </mxCell>
        <mxCell id="uHX1zcfRRRmrokzf6Jgu-3" value="&lt;b&gt;Worker&lt;/b&gt;" style="verticalLabelPosition=bottom;html=1;verticalAlign=top;strokeWidth=1;align=center;outlineConnect=0;dashed=0;outlineConnect=0;shape=mxgraph.aws3d.worker;fillColor=#ECECEC;strokeColor=#5E5E5E;aspect=fixed;" vertex="1" parent="1">
          <mxGeometry x="159" y="218" width="74" height="50" as="geometry" />
        </mxCell>
        <mxCell id="uHX1zcfRRRmrokzf6Jgu-4" value="&lt;b&gt;Worker&lt;/b&gt;" style="verticalLabelPosition=bottom;html=1;verticalAlign=top;strokeWidth=1;align=center;outlineConnect=0;dashed=0;outlineConnect=0;shape=mxgraph.aws3d.worker;fillColor=#ECECEC;strokeColor=#5E5E5E;aspect=fixed;" vertex="1" parent="1">
          <mxGeometry x="223" y="256.7" width="74" height="50" as="geometry" />
        </mxCell>
        <mxCell id="uHX1zcfRRRmrokzf6Jgu-5" value="&lt;b&gt;Master&lt;/b&gt;&lt;div&gt;&lt;br&gt;&lt;/div&gt;" style="verticalLabelPosition=bottom;html=1;verticalAlign=top;strokeWidth=1;align=center;outlineConnect=0;dashed=0;outlineConnect=0;shape=mxgraph.aws3d.rdsMaster;fillColor=#ECECEC;strokeColor=#5E5E5E;aspect=fixed;" vertex="1" parent="1">
          <mxGeometry x="77" y="241.2" width="74.9" height="81" as="geometry" />
        </mxCell>
        <mxCell id="uHX1zcfRRRmrokzf6Jgu-6" value="&lt;span style=&quot;color: rgba(0, 0, 0, 0); font-family: monospace; font-size: 0px; text-align: start;&quot;&gt;%3CmxGraphModel%3E%3Croot%3E%3CmxCell%20id%3D%220%22%2F%3E%3CmxCell%20id%3D%221%22%20parent%3D%220%22%2F%3E%3CmxCell%20id%3D%222%22%20value%3D%22%26lt%3Bb%26gt%3BWorker%26lt%3B%2Fb%26gt%3B%22%20style%3D%22verticalLabelPosition%3Dbottom%3Bhtml%3D1%3BverticalAlign%3Dtop%3BstrokeWidth%3D1%3Balign%3Dcenter%3BoutlineConnect%3D0%3Bdashed%3D0%3BoutlineConnect%3D0%3Bshape%3Dmxgraph.aws3d.worker%3BfillColor%3D%23ECECEC%3BstrokeColor%3D%235E5E5E%3Baspect%3Dfixed%3B%22%20vertex%3D%221%22%20parent%3D%221%22%3E%3CmxGeometry%20x%3D%22459%22%20y%3D%22-11%22%20width%3D%2274%22%20height%3D%2250%22%20as%3D%22geometry%22%2F%3E%3C%2FmxCell%3E%3C%2Froot%3E%3C%2FmxGraphModel%3E&lt;/span&gt;" style="verticalLabelPosition=bottom;html=1;verticalAlign=top;strokeWidth=1;align=center;outlineConnect=0;dashed=0;outlineConnect=0;shape=mxgraph.aws3d.dashedEdge2;strokeColor=#2D6195;aspect=fixed;" vertex="1" parent="1">
          <mxGeometry x="44" y="222" width="64.69" height="36.85" as="geometry" />
        </mxCell>
        <mxCell id="uHX1zcfRRRmrokzf6Jgu-7" value="&lt;span style=&quot;color: rgba(0, 0, 0, 0); font-family: monospace; font-size: 0px; text-align: start;&quot;&gt;%3CmxGraphModel%3E%3Croot%3E%3CmxCell%20id%3D%220%22%2F%3E%3CmxCell%20id%3D%221%22%20parent%3D%220%22%2F%3E%3CmxCell%20id%3D%222%22%20value%3D%22%26lt%3Bb%26gt%3BWorker%26lt%3B%2Fb%26gt%3B%22%20style%3D%22verticalLabelPosition%3Dbottom%3Bhtml%3D1%3BverticalAlign%3Dtop%3BstrokeWidth%3D1%3Balign%3Dcenter%3BoutlineConnect%3D0%3Bdashed%3D0%3BoutlineConnect%3D0%3Bshape%3Dmxgraph.aws3d.worker%3BfillColor%3D%23ECECEC%3BstrokeColor%3D%235E5E5E%3Baspect%3Dfixed%3B%22%20vertex%3D%221%22%20parent%3D%221%22%3E%3CmxGeometry%20x%3D%22459%22%20y%3D%22-11%22%20width%3D%2274%22%20height%3D%2250%22%20as%3D%22geometry%22%2F%3E%3C%2FmxCell%3E%3C%2Froot%3E%3C%2FmxGraphModel%3E&lt;/span&gt;" style="verticalLabelPosition=bottom;html=1;verticalAlign=top;strokeWidth=1;align=center;outlineConnect=0;dashed=0;outlineConnect=0;shape=mxgraph.aws3d.dashedEdge2;strokeColor=#2D6195;aspect=fixed;" vertex="1" parent="1">
          <mxGeometry x="174" y="301" width="63.2" height="36" as="geometry" />
        </mxCell>
        <mxCell id="uHX1zcfRRRmrokzf6Jgu-8" value="" style="verticalLabelPosition=bottom;html=1;verticalAlign=top;strokeWidth=1;align=center;outlineConnect=0;dashed=0;outlineConnect=0;shape=mxgraph.aws3d.dashedArrowlessEdge2;strokeColor=#2D6195;aspect=fixed;" vertex="1" parent="1">
          <mxGeometry x="138" y="313.89" width="40.57" height="23.11" as="geometry" />
        </mxCell>
        <mxCell id="uHX1zcfRRRmrokzf6Jgu-9" value="" style="verticalLabelPosition=bottom;html=1;verticalAlign=top;strokeWidth=1;align=center;outlineConnect=0;dashed=0;outlineConnect=0;shape=mxgraph.aws3d.dashedArrowlessEdge2;strokeColor=#2D6195;aspect=fixed;" vertex="1" parent="1">
          <mxGeometry x="44" y="260.90999999999997" width="30" height="17.09" as="geometry" />
        </mxCell>
        <mxCell id="uHX1zcfRRRmrokzf6Jgu-10" value="" style="verticalLabelPosition=bottom;html=1;verticalAlign=top;strokeWidth=1;align=center;outlineConnect=0;dashed=0;outlineConnect=0;shape=mxgraph.aws3d.dashedArrowlessEdge2;strokeColor=#001DBC;aspect=fixed;fillColor=#0050ef;fontColor=#ffffff;" vertex="1" parent="1">
          <mxGeometry x="145" y="162.03" width="212.37" height="120.97" as="geometry" />
        </mxCell>
        <mxCell id="uHX1zcfRRRmrokzf6Jgu-11" value="" style="verticalLabelPosition=bottom;html=1;verticalAlign=top;strokeWidth=1;align=center;outlineConnect=0;dashed=0;outlineConnect=0;shape=mxgraph.aws3d.dashedArrowlessEdge2;strokeColor=#001DBC;aspect=fixed;rotation=120;fillColor=#0050ef;fontColor=#ffffff;" vertex="1" parent="1">
          <mxGeometry x="171.3" y="288.03" width="182.54" height="103.98" as="geometry" />
        </mxCell>
        <mxCell id="uHX1zcfRRRmrokzf6Jgu-12" value="" style="verticalLabelPosition=bottom;html=1;verticalAlign=top;strokeWidth=1;align=center;outlineConnect=0;dashed=0;outlineConnect=0;shape=mxgraph.aws3d.dashedArrowlessEdge2;strokeColor=#001DBC;aspect=fixed;fillColor=#0050ef;fontColor=#ffffff;" vertex="1" parent="1">
          <mxGeometry x="-43" y="273" width="214" height="121.89" as="geometry" />
        </mxCell>
        <mxCell id="uHX1zcfRRRmrokzf6Jgu-13" value="" style="verticalLabelPosition=bottom;html=1;verticalAlign=top;strokeWidth=1;align=center;outlineConnect=0;dashed=0;outlineConnect=0;shape=mxgraph.aws3d.dashedArrowlessEdge2;strokeColor=#001DBC;aspect=fixed;rotation=120;fillColor=#0050ef;fontColor=#ffffff;" vertex="1" parent="1">
          <mxGeometry x="-44.53999999999999" y="165.99999999999997" width="182.54" height="103.98" as="geometry" />
        </mxCell>
        <mxCell id="uHX1zcfRRRmrokzf6Jgu-14" value="&lt;b&gt;Batch processing&lt;/b&gt;" style="text;html=1;align=center;verticalAlign=middle;resizable=0;points=[];autosize=1;strokeColor=none;fillColor=none;" vertex="1" parent="1">
          <mxGeometry x="99.28999999999999" y="402" width="119" height="26" as="geometry" />
        </mxCell>
        <mxCell id="uHX1zcfRRRmrokzf6Jgu-15" value="" style="verticalLabelPosition=bottom;html=1;verticalAlign=top;strokeWidth=1;align=center;outlineConnect=0;dashed=0;outlineConnect=0;shape=mxgraph.aws3d.dashedArrowlessEdge2;strokeColor=#808080;aspect=fixed;rotation=5;fillOpacity=100;strokeOpacity=50;" vertex="1" parent="1">
          <mxGeometry x="286.49" y="321.21" width="137.88" height="78.54" as="geometry" />
        </mxCell>
        <mxCell id="uHX1zcfRRRmrokzf6Jgu-16" value="" style="verticalLabelPosition=bottom;html=1;verticalAlign=top;strokeWidth=1;align=center;outlineConnect=0;dashed=0;outlineConnect=0;shape=mxgraph.aws3d.dashedArrowlessEdge2;strokeColor=#808080;aspect=fixed;rotation=-75;gradientColor=none;strokeOpacity=50;" vertex="1" parent="1">
          <mxGeometry x="253.91" y="98.68" width="199.11" height="113.41" as="geometry" />
        </mxCell>
        <mxCell id="uHX1zcfRRRmrokzf6Jgu-17" value="&lt;font style=&quot;font-size: 40px;&quot;&gt;Factorization machine&lt;/font&gt;" style="text;html=1;align=center;verticalAlign=middle;resizable=0;points=[];autosize=1;strokeColor=none;fillColor=none;" vertex="1" parent="1">
          <mxGeometry x="588.5" y="-29" width="409" height="60" as="geometry" />
        </mxCell>
        <mxCell id="uHX1zcfRRRmrokzf6Jgu-18" value="" style="group" vertex="1" connectable="0" parent="1">
          <mxGeometry x="452.5" y="72.46000000000001" width="248" height="134" as="geometry" />
        </mxCell>
        <mxCell id="uHX1zcfRRRmrokzf6Jgu-19" value="" style="shape=table;startSize=0;container=1;collapsible=0;childLayout=tableLayout;fontSize=16;" vertex="1" parent="uHX1zcfRRRmrokzf6Jgu-18">
          <mxGeometry x="21" y="37" width="214" height="88" as="geometry" />
        </mxCell>
        <mxCell id="uHX1zcfRRRmrokzf6Jgu-20" style="shape=tableRow;horizontal=0;startSize=0;swimlaneHead=0;swimlaneBody=0;strokeColor=inherit;top=0;left=0;bottom=0;right=0;collapsible=0;dropTarget=0;fillColor=none;points=[[0,0.5],[1,0.5]];portConstraint=eastwest;fontSize=16;" vertex="1" parent="uHX1zcfRRRmrokzf6Jgu-19">
          <mxGeometry width="214" height="22" as="geometry" />
        </mxCell>
        <mxCell id="uHX1zcfRRRmrokzf6Jgu-21" value="0" style="shape=partialRectangle;html=1;whiteSpace=wrap;connectable=0;strokeColor=inherit;overflow=hidden;fillColor=none;top=0;left=0;bottom=0;right=0;pointerEvents=1;fontSize=16;" vertex="1" parent="uHX1zcfRRRmrokzf6Jgu-20">
          <mxGeometry width="54" height="22" as="geometry">
            <mxRectangle width="54" height="22" as="alternateBounds" />
          </mxGeometry>
        </mxCell>
        <mxCell id="uHX1zcfRRRmrokzf6Jgu-22" value="---" style="shape=partialRectangle;html=1;whiteSpace=wrap;connectable=0;strokeColor=inherit;overflow=hidden;fillColor=none;top=0;left=0;bottom=0;right=0;pointerEvents=1;fontSize=16;" vertex="1" parent="uHX1zcfRRRmrokzf6Jgu-20">
          <mxGeometry x="54" width="53" height="22" as="geometry">
            <mxRectangle width="53" height="22" as="alternateBounds" />
          </mxGeometry>
        </mxCell>
        <mxCell id="uHX1zcfRRRmrokzf6Jgu-23" value="1" style="shape=partialRectangle;html=1;whiteSpace=wrap;connectable=0;strokeColor=inherit;overflow=hidden;fillColor=none;top=0;left=0;bottom=0;right=0;pointerEvents=1;fontSize=16;" vertex="1" parent="uHX1zcfRRRmrokzf6Jgu-20">
          <mxGeometry x="107" width="54" height="22" as="geometry">
            <mxRectangle width="54" height="22" as="alternateBounds" />
          </mxGeometry>
        </mxCell>
        <mxCell id="uHX1zcfRRRmrokzf6Jgu-24" value="1" style="shape=partialRectangle;html=1;whiteSpace=wrap;connectable=0;strokeColor=inherit;overflow=hidden;fillColor=none;top=0;left=0;bottom=0;right=0;pointerEvents=1;fontSize=16;" vertex="1" parent="uHX1zcfRRRmrokzf6Jgu-20">
          <mxGeometry x="161" width="53" height="22" as="geometry">
            <mxRectangle width="53" height="22" as="alternateBounds" />
          </mxGeometry>
        </mxCell>
        <mxCell id="uHX1zcfRRRmrokzf6Jgu-25" value="" style="shape=tableRow;horizontal=0;startSize=0;swimlaneHead=0;swimlaneBody=0;strokeColor=inherit;top=0;left=0;bottom=0;right=0;collapsible=0;dropTarget=0;fillColor=none;points=[[0,0.5],[1,0.5]];portConstraint=eastwest;fontSize=16;" vertex="1" parent="uHX1zcfRRRmrokzf6Jgu-19">
          <mxGeometry y="22" width="214" height="22" as="geometry" />
        </mxCell>
        <mxCell id="uHX1zcfRRRmrokzf6Jgu-26" value="1" style="shape=partialRectangle;html=1;whiteSpace=wrap;connectable=0;strokeColor=inherit;overflow=hidden;fillColor=none;top=0;left=0;bottom=0;right=0;pointerEvents=1;fontSize=16;" vertex="1" parent="uHX1zcfRRRmrokzf6Jgu-25">
          <mxGeometry width="54" height="22" as="geometry">
            <mxRectangle width="54" height="22" as="alternateBounds" />
          </mxGeometry>
        </mxCell>
        <mxCell id="uHX1zcfRRRmrokzf6Jgu-27" value="---" style="shape=partialRectangle;html=1;whiteSpace=wrap;connectable=0;strokeColor=inherit;overflow=hidden;fillColor=none;top=0;left=0;bottom=0;right=0;pointerEvents=1;fontSize=16;" vertex="1" parent="uHX1zcfRRRmrokzf6Jgu-25">
          <mxGeometry x="54" width="53" height="22" as="geometry">
            <mxRectangle width="53" height="22" as="alternateBounds" />
          </mxGeometry>
        </mxCell>
        <mxCell id="uHX1zcfRRRmrokzf6Jgu-28" value="1" style="shape=partialRectangle;html=1;whiteSpace=wrap;connectable=0;strokeColor=inherit;overflow=hidden;fillColor=none;top=0;left=0;bottom=0;right=0;pointerEvents=1;fontSize=16;" vertex="1" parent="uHX1zcfRRRmrokzf6Jgu-25">
          <mxGeometry x="107" width="54" height="22" as="geometry">
            <mxRectangle width="54" height="22" as="alternateBounds" />
          </mxGeometry>
        </mxCell>
        <mxCell id="uHX1zcfRRRmrokzf6Jgu-29" value="0" style="shape=partialRectangle;html=1;whiteSpace=wrap;connectable=0;strokeColor=inherit;overflow=hidden;fillColor=none;top=0;left=0;bottom=0;right=0;pointerEvents=1;fontSize=16;" vertex="1" parent="uHX1zcfRRRmrokzf6Jgu-25">
          <mxGeometry x="161" width="53" height="22" as="geometry">
            <mxRectangle width="53" height="22" as="alternateBounds" />
          </mxGeometry>
        </mxCell>
        <mxCell id="uHX1zcfRRRmrokzf6Jgu-30" value="" style="shape=tableRow;horizontal=0;startSize=0;swimlaneHead=0;swimlaneBody=0;strokeColor=inherit;top=0;left=0;bottom=0;right=0;collapsible=0;dropTarget=0;fillColor=none;points=[[0,0.5],[1,0.5]];portConstraint=eastwest;fontSize=16;" vertex="1" parent="uHX1zcfRRRmrokzf6Jgu-19">
          <mxGeometry y="44" width="214" height="22" as="geometry" />
        </mxCell>
        <mxCell id="uHX1zcfRRRmrokzf6Jgu-31" value="---" style="shape=partialRectangle;html=1;whiteSpace=wrap;connectable=0;strokeColor=inherit;overflow=hidden;fillColor=none;top=0;left=0;bottom=0;right=0;pointerEvents=1;fontSize=16;" vertex="1" parent="uHX1zcfRRRmrokzf6Jgu-30">
          <mxGeometry width="54" height="22" as="geometry">
            <mxRectangle width="54" height="22" as="alternateBounds" />
          </mxGeometry>
        </mxCell>
        <mxCell id="uHX1zcfRRRmrokzf6Jgu-32" value="---" style="shape=partialRectangle;html=1;whiteSpace=wrap;connectable=0;strokeColor=inherit;overflow=hidden;fillColor=none;top=0;left=0;bottom=0;right=0;pointerEvents=1;fontSize=16;" vertex="1" parent="uHX1zcfRRRmrokzf6Jgu-30">
          <mxGeometry x="54" width="53" height="22" as="geometry">
            <mxRectangle width="53" height="22" as="alternateBounds" />
          </mxGeometry>
        </mxCell>
        <mxCell id="uHX1zcfRRRmrokzf6Jgu-33" value="---" style="shape=partialRectangle;html=1;whiteSpace=wrap;connectable=0;strokeColor=inherit;overflow=hidden;fillColor=none;top=0;left=0;bottom=0;right=0;pointerEvents=1;fontSize=16;" vertex="1" parent="uHX1zcfRRRmrokzf6Jgu-30">
          <mxGeometry x="107" width="54" height="22" as="geometry">
            <mxRectangle width="54" height="22" as="alternateBounds" />
          </mxGeometry>
        </mxCell>
        <mxCell id="uHX1zcfRRRmrokzf6Jgu-34" value="---" style="shape=partialRectangle;html=1;whiteSpace=wrap;connectable=0;strokeColor=inherit;overflow=hidden;fillColor=none;top=0;left=0;bottom=0;right=0;pointerEvents=1;fontSize=16;" vertex="1" parent="uHX1zcfRRRmrokzf6Jgu-30">
          <mxGeometry x="161" width="53" height="22" as="geometry">
            <mxRectangle width="53" height="22" as="alternateBounds" />
          </mxGeometry>
        </mxCell>
        <mxCell id="uHX1zcfRRRmrokzf6Jgu-35" value="" style="shape=tableRow;horizontal=0;startSize=0;swimlaneHead=0;swimlaneBody=0;strokeColor=inherit;top=0;left=0;bottom=0;right=0;collapsible=0;dropTarget=0;fillColor=none;points=[[0,0.5],[1,0.5]];portConstraint=eastwest;fontSize=16;" vertex="1" parent="uHX1zcfRRRmrokzf6Jgu-19">
          <mxGeometry y="66" width="214" height="22" as="geometry" />
        </mxCell>
        <mxCell id="uHX1zcfRRRmrokzf6Jgu-36" value="0" style="shape=partialRectangle;html=1;whiteSpace=wrap;connectable=0;strokeColor=inherit;overflow=hidden;fillColor=none;top=0;left=0;bottom=0;right=0;pointerEvents=1;fontSize=16;" vertex="1" parent="uHX1zcfRRRmrokzf6Jgu-35">
          <mxGeometry width="54" height="22" as="geometry">
            <mxRectangle width="54" height="22" as="alternateBounds" />
          </mxGeometry>
        </mxCell>
        <mxCell id="uHX1zcfRRRmrokzf6Jgu-37" value="---" style="shape=partialRectangle;html=1;whiteSpace=wrap;connectable=0;strokeColor=inherit;overflow=hidden;fillColor=none;top=0;left=0;bottom=0;right=0;pointerEvents=1;fontSize=16;" vertex="1" parent="uHX1zcfRRRmrokzf6Jgu-35">
          <mxGeometry x="54" width="53" height="22" as="geometry">
            <mxRectangle width="53" height="22" as="alternateBounds" />
          </mxGeometry>
        </mxCell>
        <mxCell id="uHX1zcfRRRmrokzf6Jgu-38" value="1" style="shape=partialRectangle;html=1;whiteSpace=wrap;connectable=0;strokeColor=inherit;overflow=hidden;fillColor=none;top=0;left=0;bottom=0;right=0;pointerEvents=1;fontSize=16;" vertex="1" parent="uHX1zcfRRRmrokzf6Jgu-35">
          <mxGeometry x="107" width="54" height="22" as="geometry">
            <mxRectangle width="54" height="22" as="alternateBounds" />
          </mxGeometry>
        </mxCell>
        <mxCell id="uHX1zcfRRRmrokzf6Jgu-39" value="0" style="shape=partialRectangle;html=1;whiteSpace=wrap;connectable=0;strokeColor=inherit;overflow=hidden;fillColor=none;top=0;left=0;bottom=0;right=0;pointerEvents=1;fontSize=16;" vertex="1" parent="uHX1zcfRRRmrokzf6Jgu-35">
          <mxGeometry x="161" width="53" height="22" as="geometry">
            <mxRectangle width="53" height="22" as="alternateBounds" />
          </mxGeometry>
        </mxCell>
        <mxCell id="uHX1zcfRRRmrokzf6Jgu-40" value="&lt;b&gt;Updated utility matrix&lt;/b&gt;" style="text;html=1;align=center;verticalAlign=middle;resizable=0;points=[];autosize=1;strokeColor=none;fillColor=none;" vertex="1" parent="uHX1zcfRRRmrokzf6Jgu-18">
          <mxGeometry x="57.5" width="141" height="26" as="geometry" />
        </mxCell>
        <mxCell id="uHX1zcfRRRmrokzf6Jgu-41" value="" style="shadow=0;dashed=0;html=1;strokeColor=none;fillColor=#4495D1;labelPosition=center;verticalLabelPosition=bottom;verticalAlign=top;align=center;outlineConnect=0;shape=mxgraph.veeam.checked_doc;" vertex="1" parent="uHX1zcfRRRmrokzf6Jgu-18">
          <mxGeometry x="41" y="20" width="15" height="17" as="geometry" />
        </mxCell>
        <mxCell id="uHX1zcfRRRmrokzf6Jgu-42" value="" style="shadow=0;dashed=0;html=1;strokeColor=#6F0000;fillColor=#a20025;labelPosition=center;verticalLabelPosition=bottom;verticalAlign=top;align=center;outlineConnect=0;shape=mxgraph.veeam.checked_doc;fontColor=#ffffff;" vertex="1" parent="uHX1zcfRRRmrokzf6Jgu-18">
          <mxGeometry x="149" y="20" width="15" height="17" as="geometry" />
        </mxCell>
        <mxCell id="uHX1zcfRRRmrokzf6Jgu-43" value="" style="shadow=0;dashed=0;html=1;strokeColor=#A50040;fillColor=#d80073;labelPosition=center;verticalLabelPosition=bottom;verticalAlign=top;align=center;outlineConnect=0;shape=mxgraph.veeam.checked_doc;fontColor=#ffffff;" vertex="1" parent="uHX1zcfRRRmrokzf6Jgu-18">
          <mxGeometry x="204" y="20" width="15" height="17" as="geometry" />
        </mxCell>
        <mxCell id="uHX1zcfRRRmrokzf6Jgu-44" value="" style="verticalLabelPosition=bottom;html=1;verticalAlign=top;align=center;strokeColor=none;fillColor=#00BEF2;shape=mxgraph.azure.user;" vertex="1" parent="uHX1zcfRRRmrokzf6Jgu-18">
          <mxGeometry y="40" width="14" height="15" as="geometry" />
        </mxCell>
        <mxCell id="uHX1zcfRRRmrokzf6Jgu-45" value="" style="verticalLabelPosition=bottom;html=1;verticalAlign=top;align=center;strokeColor=#2D7600;fillColor=#60a917;shape=mxgraph.azure.user;fontColor=#ffffff;" vertex="1" parent="uHX1zcfRRRmrokzf6Jgu-18">
          <mxGeometry y="61" width="14" height="15" as="geometry" />
        </mxCell>
        <mxCell id="uHX1zcfRRRmrokzf6Jgu-46" value="" style="verticalLabelPosition=bottom;html=1;verticalAlign=top;align=center;strokeColor=#6F0000;fillColor=#a20025;shape=mxgraph.azure.user;fontColor=#ffffff;" vertex="1" parent="uHX1zcfRRRmrokzf6Jgu-18">
          <mxGeometry y="106.03" width="14" height="15" as="geometry" />
        </mxCell>
        <mxCell id="uHX1zcfRRRmrokzf6Jgu-170" value="" style="shape=table;startSize=0;container=1;collapsible=0;childLayout=tableLayout;fontSize=16;" vertex="1" parent="1">
          <mxGeometry x="820" y="111.89" width="323" height="87" as="geometry" />
        </mxCell>
        <mxCell id="uHX1zcfRRRmrokzf6Jgu-171" value="" style="shape=tableRow;horizontal=0;startSize=0;swimlaneHead=0;swimlaneBody=0;strokeColor=inherit;top=0;left=0;bottom=0;right=0;collapsible=0;dropTarget=0;fillColor=none;points=[[0,0.5],[1,0.5]];portConstraint=eastwest;fontSize=16;" vertex="1" parent="uHX1zcfRRRmrokzf6Jgu-170">
          <mxGeometry width="323" height="21" as="geometry" />
        </mxCell>
        <mxCell id="uHX1zcfRRRmrokzf6Jgu-172" value="0" style="shape=partialRectangle;html=1;whiteSpace=wrap;connectable=0;strokeColor=inherit;overflow=hidden;fillColor=none;top=0;left=0;bottom=0;right=0;pointerEvents=1;fontSize=16;" vertex="1" parent="uHX1zcfRRRmrokzf6Jgu-171">
          <mxGeometry width="54" height="21" as="geometry">
            <mxRectangle width="54" height="21" as="alternateBounds" />
          </mxGeometry>
        </mxCell>
        <mxCell id="uHX1zcfRRRmrokzf6Jgu-173" value="---" style="shape=partialRectangle;html=1;whiteSpace=wrap;connectable=0;strokeColor=inherit;overflow=hidden;fillColor=none;top=0;left=0;bottom=0;right=0;pointerEvents=1;fontSize=16;" vertex="1" parent="uHX1zcfRRRmrokzf6Jgu-171">
          <mxGeometry x="54" width="54" height="21" as="geometry">
            <mxRectangle width="54" height="21" as="alternateBounds" />
          </mxGeometry>
        </mxCell>
        <mxCell id="uHX1zcfRRRmrokzf6Jgu-174" value="1" style="shape=partialRectangle;html=1;whiteSpace=wrap;connectable=0;strokeColor=inherit;overflow=hidden;fillColor=none;top=0;left=0;bottom=0;right=0;pointerEvents=1;fontSize=16;" vertex="1" parent="uHX1zcfRRRmrokzf6Jgu-171">
          <mxGeometry x="108" width="54" height="21" as="geometry">
            <mxRectangle width="54" height="21" as="alternateBounds" />
          </mxGeometry>
        </mxCell>
        <mxCell id="uHX1zcfRRRmrokzf6Jgu-183" value="---" style="shape=partialRectangle;html=1;whiteSpace=wrap;connectable=0;strokeColor=inherit;overflow=hidden;fillColor=none;top=0;left=0;bottom=0;right=0;pointerEvents=1;fontSize=16;" vertex="1" parent="uHX1zcfRRRmrokzf6Jgu-171">
          <mxGeometry x="162" width="53" height="21" as="geometry">
            <mxRectangle width="53" height="21" as="alternateBounds" />
          </mxGeometry>
        </mxCell>
        <mxCell id="uHX1zcfRRRmrokzf6Jgu-186" value="---" style="shape=partialRectangle;html=1;whiteSpace=wrap;connectable=0;strokeColor=inherit;overflow=hidden;fillColor=none;top=0;left=0;bottom=0;right=0;pointerEvents=1;fontSize=16;" vertex="1" parent="uHX1zcfRRRmrokzf6Jgu-171">
          <mxGeometry x="215" width="54" height="21" as="geometry">
            <mxRectangle width="54" height="21" as="alternateBounds" />
          </mxGeometry>
        </mxCell>
        <mxCell id="PysKlKZCVOv7H8vEPWre-4" value="0" style="shape=partialRectangle;html=1;whiteSpace=wrap;connectable=0;strokeColor=inherit;overflow=hidden;fillColor=none;top=0;left=0;bottom=0;right=0;pointerEvents=1;fontSize=16;" vertex="1" parent="uHX1zcfRRRmrokzf6Jgu-171">
          <mxGeometry x="269" width="54" height="21" as="geometry">
            <mxRectangle width="54" height="21" as="alternateBounds" />
          </mxGeometry>
        </mxCell>
        <mxCell id="uHX1zcfRRRmrokzf6Jgu-175" value="" style="shape=tableRow;horizontal=0;startSize=0;swimlaneHead=0;swimlaneBody=0;strokeColor=inherit;top=0;left=0;bottom=0;right=0;collapsible=0;dropTarget=0;fillColor=none;points=[[0,0.5],[1,0.5]];portConstraint=eastwest;fontSize=16;" vertex="1" parent="uHX1zcfRRRmrokzf6Jgu-170">
          <mxGeometry y="21" width="323" height="23" as="geometry" />
        </mxCell>
        <mxCell id="uHX1zcfRRRmrokzf6Jgu-176" value="1" style="shape=partialRectangle;html=1;whiteSpace=wrap;connectable=0;strokeColor=inherit;overflow=hidden;fillColor=none;top=0;left=0;bottom=0;right=0;pointerEvents=1;fontSize=16;" vertex="1" parent="uHX1zcfRRRmrokzf6Jgu-175">
          <mxGeometry width="54" height="23" as="geometry">
            <mxRectangle width="54" height="23" as="alternateBounds" />
          </mxGeometry>
        </mxCell>
        <mxCell id="uHX1zcfRRRmrokzf6Jgu-177" value="---" style="shape=partialRectangle;html=1;whiteSpace=wrap;connectable=0;strokeColor=inherit;overflow=hidden;fillColor=none;top=0;left=0;bottom=0;right=0;pointerEvents=1;fontSize=16;" vertex="1" parent="uHX1zcfRRRmrokzf6Jgu-175">
          <mxGeometry x="54" width="54" height="23" as="geometry">
            <mxRectangle width="54" height="23" as="alternateBounds" />
          </mxGeometry>
        </mxCell>
        <mxCell id="uHX1zcfRRRmrokzf6Jgu-178" value="1" style="shape=partialRectangle;html=1;whiteSpace=wrap;connectable=0;strokeColor=inherit;overflow=hidden;fillColor=none;top=0;left=0;bottom=0;right=0;pointerEvents=1;fontSize=16;" vertex="1" parent="uHX1zcfRRRmrokzf6Jgu-175">
          <mxGeometry x="108" width="54" height="23" as="geometry">
            <mxRectangle width="54" height="23" as="alternateBounds" />
          </mxGeometry>
        </mxCell>
        <mxCell id="uHX1zcfRRRmrokzf6Jgu-184" value="---" style="shape=partialRectangle;html=1;whiteSpace=wrap;connectable=0;strokeColor=inherit;overflow=hidden;fillColor=none;top=0;left=0;bottom=0;right=0;pointerEvents=1;fontSize=16;" vertex="1" parent="uHX1zcfRRRmrokzf6Jgu-175">
          <mxGeometry x="162" width="53" height="23" as="geometry">
            <mxRectangle width="53" height="23" as="alternateBounds" />
          </mxGeometry>
        </mxCell>
        <mxCell id="uHX1zcfRRRmrokzf6Jgu-187" value="---" style="shape=partialRectangle;html=1;whiteSpace=wrap;connectable=0;strokeColor=inherit;overflow=hidden;fillColor=none;top=0;left=0;bottom=0;right=0;pointerEvents=1;fontSize=16;" vertex="1" parent="uHX1zcfRRRmrokzf6Jgu-175">
          <mxGeometry x="215" width="54" height="23" as="geometry">
            <mxRectangle width="54" height="23" as="alternateBounds" />
          </mxGeometry>
        </mxCell>
        <mxCell id="PysKlKZCVOv7H8vEPWre-5" value="1" style="shape=partialRectangle;html=1;whiteSpace=wrap;connectable=0;strokeColor=inherit;overflow=hidden;fillColor=none;top=0;left=0;bottom=0;right=0;pointerEvents=1;fontSize=16;" vertex="1" parent="uHX1zcfRRRmrokzf6Jgu-175">
          <mxGeometry x="269" width="54" height="23" as="geometry">
            <mxRectangle width="54" height="23" as="alternateBounds" />
          </mxGeometry>
        </mxCell>
        <mxCell id="uHX1zcfRRRmrokzf6Jgu-179" value="" style="shape=tableRow;horizontal=0;startSize=0;swimlaneHead=0;swimlaneBody=0;strokeColor=inherit;top=0;left=0;bottom=0;right=0;collapsible=0;dropTarget=0;fillColor=none;points=[[0,0.5],[1,0.5]];portConstraint=eastwest;fontSize=16;" vertex="1" parent="uHX1zcfRRRmrokzf6Jgu-170">
          <mxGeometry y="44" width="323" height="22" as="geometry" />
        </mxCell>
        <mxCell id="uHX1zcfRRRmrokzf6Jgu-180" value="---" style="shape=partialRectangle;html=1;whiteSpace=wrap;connectable=0;strokeColor=inherit;overflow=hidden;fillColor=none;top=0;left=0;bottom=0;right=0;pointerEvents=1;fontSize=16;" vertex="1" parent="uHX1zcfRRRmrokzf6Jgu-179">
          <mxGeometry width="54" height="22" as="geometry">
            <mxRectangle width="54" height="22" as="alternateBounds" />
          </mxGeometry>
        </mxCell>
        <mxCell id="uHX1zcfRRRmrokzf6Jgu-181" value="---" style="shape=partialRectangle;html=1;whiteSpace=wrap;connectable=0;strokeColor=inherit;overflow=hidden;fillColor=none;top=0;left=0;bottom=0;right=0;pointerEvents=1;fontSize=16;" vertex="1" parent="uHX1zcfRRRmrokzf6Jgu-179">
          <mxGeometry x="54" width="54" height="22" as="geometry">
            <mxRectangle width="54" height="22" as="alternateBounds" />
          </mxGeometry>
        </mxCell>
        <mxCell id="uHX1zcfRRRmrokzf6Jgu-182" value="---" style="shape=partialRectangle;html=1;whiteSpace=wrap;connectable=0;strokeColor=inherit;overflow=hidden;fillColor=none;top=0;left=0;bottom=0;right=0;pointerEvents=1;fontSize=16;" vertex="1" parent="uHX1zcfRRRmrokzf6Jgu-179">
          <mxGeometry x="108" width="54" height="22" as="geometry">
            <mxRectangle width="54" height="22" as="alternateBounds" />
          </mxGeometry>
        </mxCell>
        <mxCell id="uHX1zcfRRRmrokzf6Jgu-185" value="---" style="shape=partialRectangle;html=1;whiteSpace=wrap;connectable=0;strokeColor=inherit;overflow=hidden;fillColor=none;top=0;left=0;bottom=0;right=0;pointerEvents=1;fontSize=16;" vertex="1" parent="uHX1zcfRRRmrokzf6Jgu-179">
          <mxGeometry x="162" width="53" height="22" as="geometry">
            <mxRectangle width="53" height="22" as="alternateBounds" />
          </mxGeometry>
        </mxCell>
        <mxCell id="uHX1zcfRRRmrokzf6Jgu-188" value="---" style="shape=partialRectangle;html=1;whiteSpace=wrap;connectable=0;strokeColor=inherit;overflow=hidden;fillColor=none;top=0;left=0;bottom=0;right=0;pointerEvents=1;fontSize=16;" vertex="1" parent="uHX1zcfRRRmrokzf6Jgu-179">
          <mxGeometry x="215" width="54" height="22" as="geometry">
            <mxRectangle width="54" height="22" as="alternateBounds" />
          </mxGeometry>
        </mxCell>
        <mxCell id="PysKlKZCVOv7H8vEPWre-6" value="---" style="shape=partialRectangle;html=1;whiteSpace=wrap;connectable=0;strokeColor=inherit;overflow=hidden;fillColor=none;top=0;left=0;bottom=0;right=0;pointerEvents=1;fontSize=16;" vertex="1" parent="uHX1zcfRRRmrokzf6Jgu-179">
          <mxGeometry x="269" width="54" height="22" as="geometry">
            <mxRectangle width="54" height="22" as="alternateBounds" />
          </mxGeometry>
        </mxCell>
        <mxCell id="uHX1zcfRRRmrokzf6Jgu-189" style="shape=tableRow;horizontal=0;startSize=0;swimlaneHead=0;swimlaneBody=0;strokeColor=inherit;top=0;left=0;bottom=0;right=0;collapsible=0;dropTarget=0;fillColor=none;points=[[0,0.5],[1,0.5]];portConstraint=eastwest;fontSize=16;" vertex="1" parent="uHX1zcfRRRmrokzf6Jgu-170">
          <mxGeometry y="66" width="323" height="21" as="geometry" />
        </mxCell>
        <mxCell id="uHX1zcfRRRmrokzf6Jgu-190" value="0" style="shape=partialRectangle;html=1;whiteSpace=wrap;connectable=0;strokeColor=inherit;overflow=hidden;fillColor=none;top=0;left=0;bottom=0;right=0;pointerEvents=1;fontSize=16;" vertex="1" parent="uHX1zcfRRRmrokzf6Jgu-189">
          <mxGeometry width="54" height="21" as="geometry">
            <mxRectangle width="54" height="21" as="alternateBounds" />
          </mxGeometry>
        </mxCell>
        <mxCell id="uHX1zcfRRRmrokzf6Jgu-191" value="---" style="shape=partialRectangle;html=1;whiteSpace=wrap;connectable=0;strokeColor=inherit;overflow=hidden;fillColor=none;top=0;left=0;bottom=0;right=0;pointerEvents=1;fontSize=16;" vertex="1" parent="uHX1zcfRRRmrokzf6Jgu-189">
          <mxGeometry x="54" width="54" height="21" as="geometry">
            <mxRectangle width="54" height="21" as="alternateBounds" />
          </mxGeometry>
        </mxCell>
        <mxCell id="uHX1zcfRRRmrokzf6Jgu-192" value="0" style="shape=partialRectangle;html=1;whiteSpace=wrap;connectable=0;strokeColor=inherit;overflow=hidden;fillColor=none;top=0;left=0;bottom=0;right=0;pointerEvents=1;fontSize=16;" vertex="1" parent="uHX1zcfRRRmrokzf6Jgu-189">
          <mxGeometry x="108" width="54" height="21" as="geometry">
            <mxRectangle width="54" height="21" as="alternateBounds" />
          </mxGeometry>
        </mxCell>
        <mxCell id="uHX1zcfRRRmrokzf6Jgu-193" value="---" style="shape=partialRectangle;html=1;whiteSpace=wrap;connectable=0;strokeColor=inherit;overflow=hidden;fillColor=none;top=0;left=0;bottom=0;right=0;pointerEvents=1;fontSize=16;" vertex="1" parent="uHX1zcfRRRmrokzf6Jgu-189">
          <mxGeometry x="162" width="53" height="21" as="geometry">
            <mxRectangle width="53" height="21" as="alternateBounds" />
          </mxGeometry>
        </mxCell>
        <mxCell id="uHX1zcfRRRmrokzf6Jgu-194" value="---" style="shape=partialRectangle;html=1;whiteSpace=wrap;connectable=0;strokeColor=inherit;overflow=hidden;fillColor=none;top=0;left=0;bottom=0;right=0;pointerEvents=1;fontSize=16;" vertex="1" parent="uHX1zcfRRRmrokzf6Jgu-189">
          <mxGeometry x="215" width="54" height="21" as="geometry">
            <mxRectangle width="54" height="21" as="alternateBounds" />
          </mxGeometry>
        </mxCell>
        <mxCell id="PysKlKZCVOv7H8vEPWre-7" value="1" style="shape=partialRectangle;html=1;whiteSpace=wrap;connectable=0;strokeColor=inherit;overflow=hidden;fillColor=none;top=0;left=0;bottom=0;right=0;pointerEvents=1;fontSize=16;" vertex="1" parent="uHX1zcfRRRmrokzf6Jgu-189">
          <mxGeometry x="269" width="54" height="21" as="geometry">
            <mxRectangle width="54" height="21" as="alternateBounds" />
          </mxGeometry>
        </mxCell>
        <mxCell id="uHX1zcfRRRmrokzf6Jgu-201" value="&lt;b&gt;Fatorization matrix&lt;/b&gt;" style="text;html=1;align=center;verticalAlign=middle;resizable=0;points=[];autosize=1;strokeColor=none;fillColor=none;" vertex="1" parent="1">
          <mxGeometry x="907.5" y="72.46" width="125" height="26" as="geometry" />
        </mxCell>
        <mxCell id="uHX1zcfRRRmrokzf6Jgu-202" value="" style="shadow=0;dashed=0;html=1;strokeColor=none;fillColor=#4495D1;labelPosition=center;verticalLabelPosition=bottom;verticalAlign=top;align=center;outlineConnect=0;shape=mxgraph.veeam.checked_doc;" vertex="1" parent="1">
          <mxGeometry x="977" y="94.89000000000001" width="15" height="17" as="geometry" />
        </mxCell>
        <mxCell id="uHX1zcfRRRmrokzf6Jgu-203" value="" style="verticalLabelPosition=bottom;html=1;verticalAlign=top;align=center;strokeColor=none;fillColor=#00BEF2;shape=mxgraph.azure.user;" vertex="1" parent="1">
          <mxGeometry x="866" y="94.89000000000001" width="14" height="15" as="geometry" />
        </mxCell>
        <mxCell id="uHX1zcfRRRmrokzf6Jgu-204" value="Features" style="text;html=1;align=center;verticalAlign=middle;resizable=0;points=[];autosize=1;strokeColor=none;fillColor=none;" vertex="1" parent="1">
          <mxGeometry x="1029" y="85.89" width="65" height="26" as="geometry" />
        </mxCell>
        <mxCell id="uHX1zcfRRRmrokzf6Jgu-205" value="x1" style="text;html=1;align=center;verticalAlign=middle;resizable=0;points=[];autosize=1;strokeColor=none;fillColor=none;" vertex="1" parent="1">
          <mxGeometry x="785.5" y="109.88999999999999" width="31" height="26" as="geometry" />
        </mxCell>
        <mxCell id="uHX1zcfRRRmrokzf6Jgu-206" value="x2" style="text;html=1;align=center;verticalAlign=middle;resizable=0;points=[];autosize=1;strokeColor=none;fillColor=none;" vertex="1" parent="1">
          <mxGeometry x="785.5" y="130" width="31" height="26" as="geometry" />
        </mxCell>
        <mxCell id="uHX1zcfRRRmrokzf6Jgu-207" value="xn" style="text;html=1;align=center;verticalAlign=middle;resizable=0;points=[];autosize=1;strokeColor=none;fillColor=none;" vertex="1" parent="1">
          <mxGeometry x="785.5" y="172.89" width="31" height="26" as="geometry" />
        </mxCell>
        <mxCell id="uHX1zcfRRRmrokzf6Jgu-208" value="Dense emb" style="shape=singleArrow;whiteSpace=wrap;html=1;" vertex="1" parent="1">
          <mxGeometry x="694" y="130" width="96" height="47" as="geometry" />
        </mxCell>
        <mxCell id="PysKlKZCVOv7H8vEPWre-1" value="" style="html=1;shadow=0;dashed=0;align=center;verticalAlign=middle;shape=mxgraph.arrows2.bendArrow;dy=15;dx=38;notch=0;arrowHead=55;rounded=0;rotation=90;direction=west;flipV=1;" vertex="1" parent="1">
          <mxGeometry x="471.78" y="134.58" width="72.51" height="198.21" as="geometry" />
        </mxCell>
        <mxCell id="PysKlKZCVOv7H8vEPWre-2" value="Batch data" style="text;html=1;align=center;verticalAlign=middle;resizable=0;points=[];autosize=1;strokeColor=none;fillColor=none;" vertex="1" parent="1">
          <mxGeometry x="464" y="242" width="75" height="26" as="geometry" />
        </mxCell>
        <mxCell id="PysKlKZCVOv7H8vEPWre-3" value="" style="shape=singleArrow;whiteSpace=wrap;html=1;direction=south;" vertex="1" parent="1">
          <mxGeometry x="969.5" y="206.46" width="25" height="26.54" as="geometry" />
        </mxCell>
        <mxCell id="PysKlKZCVOv7H8vEPWre-8" value="Rating" style="text;html=1;align=center;verticalAlign=middle;resizable=0;points=[];autosize=1;strokeColor=none;fillColor=none;" vertex="1" parent="1">
          <mxGeometry x="1089" y="85.89" width="53" height="26" as="geometry" />
        </mxCell>
        <mxCell id="PysKlKZCVOv7H8vEPWre-9" value="" style="shape=table;startSize=0;container=1;collapsible=0;childLayout=tableLayout;fontSize=16;" vertex="1" parent="1">
          <mxGeometry x="823" y="240.85" width="323" height="21" as="geometry" />
        </mxCell>
        <mxCell id="PysKlKZCVOv7H8vEPWre-10" value="" style="shape=tableRow;horizontal=0;startSize=0;swimlaneHead=0;swimlaneBody=0;strokeColor=inherit;top=0;left=0;bottom=0;right=0;collapsible=0;dropTarget=0;fillColor=none;points=[[0,0.5],[1,0.5]];portConstraint=eastwest;fontSize=16;" vertex="1" parent="PysKlKZCVOv7H8vEPWre-9">
          <mxGeometry width="323" height="21" as="geometry" />
        </mxCell>
        <mxCell id="PysKlKZCVOv7H8vEPWre-11" value="" style="shape=partialRectangle;html=1;whiteSpace=wrap;connectable=0;strokeColor=inherit;overflow=hidden;fillColor=none;top=0;left=0;bottom=0;right=0;pointerEvents=1;fontSize=16;rowspan=1;colspan=2;" vertex="1" parent="PysKlKZCVOv7H8vEPWre-10">
          <mxGeometry width="108" height="21" as="geometry">
            <mxRectangle width="54" height="21" as="alternateBounds" />
          </mxGeometry>
        </mxCell>
        <mxCell id="PysKlKZCVOv7H8vEPWre-12" value="---" style="shape=partialRectangle;html=1;whiteSpace=wrap;connectable=0;strokeColor=inherit;overflow=hidden;fillColor=none;top=0;left=0;bottom=0;right=0;pointerEvents=1;fontSize=16;" vertex="1" visible="0" parent="PysKlKZCVOv7H8vEPWre-10">
          <mxGeometry x="54" width="54" height="21" as="geometry">
            <mxRectangle width="54" height="21" as="alternateBounds" />
          </mxGeometry>
        </mxCell>
        <mxCell id="PysKlKZCVOv7H8vEPWre-13" value="" style="shape=partialRectangle;html=1;whiteSpace=wrap;connectable=0;strokeColor=inherit;overflow=hidden;fillColor=none;top=0;left=0;bottom=0;right=0;pointerEvents=1;fontSize=16;rowspan=1;colspan=2;" vertex="1" parent="PysKlKZCVOv7H8vEPWre-10">
          <mxGeometry x="108" width="107" height="21" as="geometry">
            <mxRectangle width="54" height="21" as="alternateBounds" />
          </mxGeometry>
        </mxCell>
        <mxCell id="PysKlKZCVOv7H8vEPWre-14" value="---" style="shape=partialRectangle;html=1;whiteSpace=wrap;connectable=0;strokeColor=inherit;overflow=hidden;fillColor=none;top=0;left=0;bottom=0;right=0;pointerEvents=1;fontSize=16;" vertex="1" visible="0" parent="PysKlKZCVOv7H8vEPWre-10">
          <mxGeometry x="162" width="53" height="21" as="geometry">
            <mxRectangle width="53" height="21" as="alternateBounds" />
          </mxGeometry>
        </mxCell>
        <mxCell id="PysKlKZCVOv7H8vEPWre-15" value="---" style="shape=partialRectangle;html=1;whiteSpace=wrap;connectable=0;strokeColor=inherit;overflow=hidden;fillColor=none;top=0;left=0;bottom=0;right=0;pointerEvents=1;fontSize=16;" vertex="1" parent="PysKlKZCVOv7H8vEPWre-10">
          <mxGeometry x="215" width="54" height="21" as="geometry">
            <mxRectangle width="54" height="21" as="alternateBounds" />
          </mxGeometry>
        </mxCell>
        <mxCell id="PysKlKZCVOv7H8vEPWre-16" value="0" style="shape=partialRectangle;html=1;whiteSpace=wrap;connectable=0;strokeColor=inherit;overflow=hidden;fillColor=none;top=0;left=0;bottom=0;right=0;pointerEvents=1;fontSize=16;" vertex="1" parent="PysKlKZCVOv7H8vEPWre-10">
          <mxGeometry x="269" width="54" height="21" as="geometry">
            <mxRectangle width="54" height="21" as="alternateBounds" />
          </mxGeometry>
        </mxCell>
        <mxCell id="PysKlKZCVOv7H8vEPWre-52" value="Predicted label" style="text;html=1;align=center;verticalAlign=middle;resizable=0;points=[];autosize=1;strokeColor=none;fillColor=none;" vertex="1" parent="1">
          <mxGeometry x="1068" y="214.00000000000003" width="97" height="26" as="geometry" />
        </mxCell>
        <mxCell id="PysKlKZCVOv7H8vEPWre-53" value="" style="verticalLabelPosition=bottom;html=1;verticalAlign=top;align=center;strokeColor=#005700;fillColor=#008a00;shape=mxgraph.azure.user;fontColor=#ffffff;" vertex="1" parent="1">
          <mxGeometry x="868" y="243.85000000000005" width="14" height="15" as="geometry" />
        </mxCell>
        <mxCell id="PysKlKZCVOv7H8vEPWre-54" value="" style="shadow=0;dashed=0;html=1;strokeColor=#6F0000;fillColor=#a20025;labelPosition=center;verticalLabelPosition=bottom;verticalAlign=top;align=center;outlineConnect=0;shape=mxgraph.veeam.checked_doc;fontColor=#ffffff;" vertex="1" parent="1">
          <mxGeometry x="977" y="244.85000000000005" width="15" height="17" as="geometry" />
        </mxCell>
        <mxCell id="PysKlKZCVOv7H8vEPWre-55" value="---" style="text;html=1;align=center;verticalAlign=middle;resizable=0;points=[];autosize=1;strokeColor=none;fillColor=none;" vertex="1" parent="1">
          <mxGeometry x="967" y="260.91" width="30" height="26" as="geometry" />
        </mxCell>
        <mxCell id="PysKlKZCVOv7H8vEPWre-56" value="" style="shape=singleArrow;whiteSpace=wrap;html=1;direction=south;" vertex="1" parent="1">
          <mxGeometry x="969.5" y="283" width="25" height="26.54" as="geometry" />
        </mxCell>
        <mxCell id="PysKlKZCVOv7H8vEPWre-57" value="Ranking course for each user" style="rounded=1;whiteSpace=wrap;html=1;" vertex="1" parent="1">
          <mxGeometry x="922" y="321.21" width="120" height="60" as="geometry" />
        </mxCell>
        <mxCell id="PysKlKZCVOv7H8vEPWre-61" value="Batch recommend" style="shape=singleArrow;whiteSpace=wrap;html=1;" vertex="1" parent="1">
          <mxGeometry x="1055" y="316.21" width="145" height="70" as="geometry" />
        </mxCell>
      </root>
    </mxGraphModel>
  </diagram>
</mxfile>
